<svg xmlns="http://www.w3.org/2000/svg" viewBox="0 0 180 110">
  <g id="icon/good-health" fill="none" fill-rule="evenodd">
    <rect id="icon/base" width="180" height="110" fill-rule="nonzero"/>
    <path id="icon" fill="#FFF" d="M95.924,94.064267 C95.884,94.064267 95.845,94.063267 95.805,94.061267 C94.918,94.006267 94.186,93.348267 94.035,92.472267 L88.109,57.958267 L79.132,74.602267 C78.739,75.331267 77.918,75.723267 77.111,75.579267 C76.296,75.433267 75.668,74.783267 75.549,73.964267 L71.738,47.328267 L64.766,62.989267 C64.458,63.679267 63.772,64.125267 63.016,64.125267 L35.916,64.125267 C34.858,64.125267 34,63.267267 34,62.210267 C34,61.152267 34.858,60.294267 35.916,60.294267 L61.771,60.294267 L70.943,39.694267 C71.29,38.914267 72.111,38.459267 72.957,38.576267 C73.803,38.694267 74.468,39.356267 74.59,40.202267 L78.519,67.668267 L87.372,51.253267 C87.76,50.532267 88.561,50.138267 89.369,50.272267 C90.174,50.404267 90.808,51.033267 90.946,51.838267 L96.434,83.804267 L116.436,17.363267 C116.664,16.607267 117.333,16.068267 118.12,16.005267 C118.91,15.947267 119.654,16.372267 119.996,17.083267 L130.521,38.902267 C130.981,39.854267 130.581,41.000267 129.628,41.459267 C128.676,41.919267 127.529,41.519267 127.07,40.566267 L118.685,23.184267 L97.757,92.701267 C97.513,93.514267 96.764,94.064267 95.924,94.064267 Z M145.5959,57.299667 C145.5959,59.642667 144.6729,61.763667 143.1799,63.298667 L143.1889,63.307667 L131.5379,74.983667 L119.8709,63.294667 C118.3789,61.758667 117.4559,59.639667 117.4559,57.297667 C117.4559,52.612667 120.6459,48.815667 125.1969,48.815667 C127.4739,48.815667 130.0369,51.309667 131.5279,52.844667 C133.0189,51.311667 135.7639,48.819667 138.0399,48.819667 C142.5909,48.819667 145.5959,52.615667 145.5959,57.299667 Z"/>
  </g>
</svg>
