<svg xmlns="http://www.w3.org/2000/svg" viewBox="0 0 180 110">
  <g id="icon/decent-work-growth" fill="none" fill-rule="evenodd">
    <rect id="icon/base" width="180" height="110" fill-rule="nonzero"/>
    <path id="icon" fill="#FFF" d="M122.311233,33.1160685 C123.415053,32.0128327 123.830986,32.9894677 123.830986,33.5240045 L123.830986,97.0334127 C123.830986,97.56594 123.401056,98 122.869142,98 L105.396985,98 C104.863072,98 104.431143,97.56594 104.431143,97.0334127 L104.431143,51.7153384 C104.431143,50.3940678 104.758089,49.924841 105.396985,49.2858082 L122.311233,33.1160685 Z M73.5823625,54.182849 C74.6821836,53.0735845 75.1021152,54.0532338 75.1021152,54.5887754 L75.1021152,97.0332117 C75.1021152,97.5637295 74.6721852,97.9977895 74.1392719,97.9977895 L56.6661152,97.9977895 C56.1342018,97.9977895 55.7012723,97.5637295 55.7012723,97.0332117 L55.7012723,72.7770951 C55.7012723,71.4588388 56.0292189,70.9906166 56.6661152,70.3505791 L73.5823625,54.182849 Z M129.999482,13.5074081 L129.992483,13.65109 L127.147946,26.9361393 L127.145946,26.9783396 C127.139947,27.0958975 127.094955,27.2084315 127.003969,27.2998655 C126.815,27.492781 126.504051,27.492781 126.313082,27.2998655 L123.207587,24.1790545 L89.8990074,57.6519127 C89.7460323,57.8076518 89.5000723,57.8076518 89.348097,57.6519127 L85.6686958,53.9583837 C85.6526984,53.9433121 85.6476992,53.9272358 85.6377008,53.9121643 L75.8013015,44.0262469 L54.3437932,65.5845601 C54.1918179,65.7372849 53.9468577,65.7372849 53.7958823,65.5845601 L50.1124817,61.8850025 C49.9625061,61.7342872 49.9625061,61.4851046 50.1124817,61.331375 L71.8419457,39.49876 C71.8419457,39.49876 71.8419457,39.4947409 71.8439454,39.4947409 L75.5223468,35.7981976 C75.6763218,35.6424584 75.9202821,35.6424584 76.0732572,35.7981976 L89.6290513,49.4198443 L118.977276,19.9278789 L116.018757,16.9557736 L115.872781,16.8080727 C115.681812,16.6151571 115.681812,16.3016693 115.872781,16.1087538 C115.943769,16.0404295 116.031755,15.9942102 116.12474,15.9751196 L116.359702,15.9510051 L129.311594,13.0150715 L129.450571,13.0070334 L129.542556,13 C129.653538,13.0110525 129.76752,13.0512432 129.855505,13.1386581 C129.959489,13.2401397 130.005481,13.377793 129.999482,13.5074081 Z M98.0427822,57.0206167 C99.2435868,55.8128849 99.6625186,56.7925342 99.6625186,57.3270711 L99.6625186,97.0315036 C99.6625186,97.5640309 99.2305889,97.9980909 98.701675,97.9980909 L81.224519,97.9980909 C80.6926055,97.9980909 80.2666748,97.5640309 80.2666748,97.0315036 L80.2666748,57.974142 C80.2666748,57.4406099 80.5596272,56.3383788 81.9174062,57.6978306 L89.3311998,65.2918711 C89.4761762,65.4375625 89.7031393,65.4415816 89.858114,65.3129712 L98.0427822,57.0206167 Z"/>
  </g>
</svg>
