<svg xmlns="http://www.w3.org/2000/svg" viewBox="0 0 180 110">
  <g id="icon/gender-equality" fill="none" fill-rule="evenodd">
    <rect id="icon/base" width="180" height="110" fill-rule="nonzero"/>
    <path id="icon" fill="#FFF" d="M84.2338831,69.0691621 C95.2876593,69.0691621 104.279846,60.0806534 104.279846,49.0346431 C104.279846,37.9866236 95.2876593,28.9981149 84.2338831,28.9981149 C73.1801069,28.9981149 64.1909353,37.9866236 64.1909353,49.0346431 C64.1909353,60.0806534 73.1801069,69.0691621 84.2338831,69.0691621 Z M122.730616,11 C122.878375,11 123,11.1175428 123,11.2652248 L123,32.0482001 C123,32.1948775 122.878375,32.3124203 122.730616,32.3124203 L115.822132,32.3124203 C115.676383,32.3124203 115.554759,32.1948775 115.554759,32.0482001 L115.554759,24.3195092 L106.49221,33.3783427 C109.621282,37.8098071 111.465756,43.2087392 111.465756,49.0346431 C111.465756,62.539006 101.573948,73.7708745 88.6525792,75.8886543 L88.6525792,83.9760015 L96.8537031,83.9760015 C96.9994517,83.9760015 97.1170558,84.0935443 97.1170558,84.2392171 L97.1170558,91.6403955 C97.1170558,91.7870729 96.9994517,91.9046157 96.8537031,91.9046157 L88.6525792,91.9046157 L88.6525792,99.7357798 C88.6525792,99.8824572 88.5319596,100 88.3852058,100 L80.9831864,100 C80.8364326,100 80.7188285,99.8824572 80.7188285,99.7357798 L80.7188285,91.9046157 L72.5177046,91.9046157 C72.3649198,91.9046157 72.2493261,91.7870729 72.2493261,91.6403955 L72.2493261,84.2392171 C72.2493261,84.0935443 72.3649198,83.9760015 72.5177046,83.9760015 L80.7188285,83.9760015 L80.7188285,76.0182528 C67.3592087,74.2882638 57,62.8534581 57,49.0346431 C57,34.0253305 69.21876,21.8149432 84.2338831,21.8149432 C90.5674144,21.8149432 96.3933385,23.9909921 101.024124,27.6267821 L110.217344,18.4373455 L101.937817,18.4373455 C101.796089,18.4373455 101.674464,18.318798 101.674464,18.1711161 L101.674464,11.2652248 C101.674464,11.1175428 101.796089,11 101.937817,11 L122.730616,11 Z"/>
  </g>
</svg>
