<svg xmlns="http://www.w3.org/2000/svg" viewBox="0 0 180 110">
  <g id="icon/life-below-water" fill="none" fill-rule="evenodd">
    <rect id="icon/base" width="180" height="110" fill-rule="nonzero"/>
    <path id="icon" fill="#FFF" d="M110.794333,74.7620095 C113.856369,74.7620095 116.330167,72.2880142 116.330167,69.2408733 C116.330167,66.1927356 113.856369,63.7257177 110.794333,63.7257177 C107.740286,63.7257177 105.264491,66.1927356 105.264491,69.2408733 C105.264491,72.2880142 107.740286,74.7620095 110.794333,74.7620095 Z M134.810246,72.1893335 C134.868171,72.2591077 134.914111,72.3258916 134.956057,72.3827078 C134.980026,72.4405207 135,72.5152789 135,72.5890402 C135,72.6677854 134.980026,72.7295855 134.956057,72.7953726 C134.914111,72.8462081 134.868171,72.912992 134.810246,72.9897437 C132.718953,75.8046361 119.205445,93 100.259969,93 C83.8082649,93 66.2090461,78.1051925 66.2090461,78.1051925 C66.2090461,78.1051925 59.5736352,91.6513635 46.0081949,92.9132806 C45.960257,92.9272354 45.9113203,92.9272354 45.8653798,92.9272354 L45.7195686,92.9382 C45.4419279,92.9132806 45.2202149,92.6919966 45.2202149,92.4069189 C45.2202149,92.2952801 45.254171,92.2085607 45.3051051,92.1218413 L45.4219538,91.9384347 C47.1487186,89.0647327 51.6239257,80.8253913 51.6239257,72.5890402 C51.6239257,64.3796021 47.174685,56.1621897 45.4319409,53.273536 C45.4319409,53.273536 45.2581658,53.0173649 45.2202149,52.7801324 C45.1902537,52.5349258 45.4539124,52.2618095 45.7365466,52.2458611 L45.820438,52.2458611 C45.9103216,52.2458611 45.9952118,52.263803 46.0741096,52.263803 C59.5976042,53.5606072 66.2090461,67.0659104 66.2090461,67.0659104 C66.2090461,67.0659104 83.8082649,52.1730965 100.259969,52.1730965 C119.205445,52.1730965 132.718953,69.3684605 134.810246,72.1893335 Z M64.9674532,36.7599661 C62.9640465,38.726603 54.3042562,46.1605503 45.1580954,38.2212381 C45.0592233,38.1235542 45.0002996,37.9969638 45.0002996,37.8404701 L45.0002996,34.0666803 C45.0002996,33.7656543 45.2439842,33.5264283 45.5445951,33.5264283 C45.5795498,33.5264283 45.6065149,33.5413799 45.6494593,33.5493541 C45.7343494,33.5892251 45.8272292,33.6370703 45.9261012,33.6859123 C48.7404582,35.0933585 57.460171,38.4305609 65.3779219,30.9627232 C65.4588172,30.8919522 65.5387138,30.822178 65.6126181,30.7464231 C65.6855237,30.7055553 65.7604268,30.6916005 65.8383259,30.6916005 C65.8972497,30.6916005 65.9561734,30.7055553 66.0111023,30.7324682 C66.1259536,30.7623715 66.216836,30.8381264 66.2787558,30.9348135 C68.6347062,32.7280116 79.479668,40.0493233 89.1211876,31.0673846 L89.269995,30.9258426 C89.3648721,30.8301522 89.5056899,30.7753296 89.6475063,30.7753296 C89.8003085,30.7753296 89.9391288,30.8301522 90.0389995,30.9258426 L90.1798172,31.0673846 C99.8273291,40.0493233 110.661305,32.7280116 113.020252,30.9348135 C113.08317,30.8381264 113.17605,30.7623715 113.294896,30.7324682 C113.344831,30.7055553 113.403755,30.6916005 113.458684,30.6916005 C113.547569,30.6916005 113.61648,30.7055553 113.690384,30.7464231 C113.768283,30.822178 113.846182,30.8919522 113.920087,30.9627232 C121.83584,38.4305609 130.564541,35.0933585 133.373905,33.6859123 C133.474774,33.6370703 133.563659,33.5892251 133.648549,33.5493541 C133.690495,33.5413799 133.726449,33.5264283 133.765398,33.5264283 C134.064012,33.5264283 134.305699,33.7656543 134.305699,34.0666803 L134.305699,37.8404701 C134.305699,37.9969638 134.240783,38.1235542 134.144907,38.2212381 C124.990756,46.1605503 116.340953,38.726603 114.339544,36.7599661 C114.292605,36.6981661 114.250659,36.654308 114.185743,36.6114466 C114.10285,36.5556273 113.999983,36.5087788 113.886131,36.5087788 C113.743316,36.5087788 113.61648,36.5665918 113.520604,36.6592918 C113.511616,36.6692596 113.503626,36.6772338 113.50063,36.6832144 C103.169003,46.5094215 92.3390223,38.54519 90.0859388,36.6832144 L89.8652245,36.4728949 C89.8003085,36.4479756 89.7264042,36.4390046 89.6475063,36.4390046 C89.5746007,36.4390046 89.5056899,36.4479756 89.4427713,36.4728949 L89.222057,36.6832144 C86.9669761,38.54519 76.1320014,46.5094215 65.8043699,36.6832144 C65.7963802,36.6772338 65.7853945,36.6692596 65.7804009,36.6592918 C65.6855237,36.5665918 65.551697,36.5087788 65.4098805,36.5087788 C65.3000227,36.5087788 65.200152,36.5556273 65.1122658,36.6114466 C65.0513446,36.654308 65.0103977,36.6981661 64.9674532,36.7599661 Z M45.648161,19.8527698 C45.7330511,19.9016118 45.8279283,19.9464666 45.9258016,19.9953086 C48.7411573,21.401758 57.4618688,24.7459378 65.378621,17.2681325 C65.4565202,17.199355 65.5404116,17.1295807 65.6113198,17.048842 C65.6842254,17.0189387 65.7611259,17 65.8380263,17 C65.8989475,17 65.9548751,17.0149516 66.0108027,17.0249194 C66.1266527,17.0717678 66.2175351,17.1465259 66.2784562,17.2382292 C68.6354053,19.0344176 79.4793684,26.352739 89.120888,17.371797 L89.270694,17.2342421 C89.3645725,17.1445324 89.506389,17.0717678 89.6482054,17.0717678 C89.8010076,17.0717678 89.9388292,17.1445324 90.0396986,17.2342421 L90.1805163,17.371797 C99.8280282,26.352739 110.659008,19.0344176 113.019952,17.2382292 C113.082871,17.1465259 113.176749,17.0717678 113.294596,17.0249194 C113.343533,17.0149516 113.403456,17 113.458384,17 C113.547269,17 113.617179,17.0189387 113.689086,17.048842 C113.766985,17.1295807 113.844884,17.199355 113.919787,17.2681325 C121.838537,24.7459378 130.561246,21.401758 133.373605,19.9953086 C133.475473,19.9464666 133.56336,19.9016118 133.64825,19.8527698 C133.690195,19.8437988 133.726149,19.829844 133.765099,19.829844 C134.065709,19.829844 134.302403,20.0740538 134.302403,20.3780702 L134.302403,24.1418922 C134.302403,24.2993827 134.239484,24.4379344 134.144607,24.5306344 C124.991456,32.4619724 116.341652,25.0300187 114.339244,23.0673689 C114.292305,23.0075624 114.249361,22.9497494 114.186442,22.9138655 C114.102551,22.8570494 113.998685,22.8161816 113.887829,22.8161816 C113.744015,22.8161816 113.617179,22.8700074 113.520304,22.9617107 C113.515311,22.9716785 113.501329,22.9806495 113.499331,22.9846366 C103.170701,32.8247984 92.3387227,24.8545863 90.0866379,22.9846366 L89.8629274,22.7812945 C89.8010076,22.752388 89.7251058,22.7404267 89.6482054,22.7404267 C89.574301,22.7404267 89.506389,22.752388 89.4424717,22.7812945 L89.2207587,22.9846366 C86.9666765,24.8545863 76.1346979,32.8247984 65.805069,22.9846366 C65.7960806,22.9806495 65.7850948,22.9716785 65.7781039,22.9617107 C65.6842254,22.8700074 65.5513974,22.8161816 65.4105796,22.8161816 C65.2977257,22.8161816 65.2008511,22.8570494 65.1109675,22.9138655 C65.051045,22.9497494 65.0090993,23.0075624 64.9671536,23.0673689 C62.9627482,25.0300187 54.3039565,32.4619724 45.1587944,24.5306344 C45.0599224,24.4379344 45,24.2993827 45,24.1418922 L45,20.3780702 C45,20.0740538 45.2446833,19.829844 45.5442954,19.829844 C45.5782515,19.829844 45.6062153,19.8437988 45.648161,19.8527698 Z"/>
  </g>
</svg>
