<svg xmlns="http://www.w3.org/2000/svg" viewBox="0 0 180 110">
  <g id="icon/reduced-inequalities" fill="none" fill-rule="evenodd">
    <rect id="icon/base" width="180" height="110" fill-rule="nonzero"/>
    <path id="icon" fill="#FFF" d="M105.826208,60.3229668 C106.014397,60.3229668 106.163754,60.4902477 106.163754,60.6943702 L106.163754,69.9087589 C106.163754,70.1168643 106.014397,70.2821537 105.826208,70.2821537 L75.1692617,70.2821537 C74.9850552,70.2821537 74.8356985,70.1168643 74.8356985,69.9087589 L74.8356985,60.6943702 C74.8356985,60.4902477 74.9850552,60.3229668 75.1692617,60.3229668 L105.826208,60.3229668 Z M105.826208,40.7178463 C106.014397,40.7178463 106.163754,40.8851272 106.163754,41.0892497 L106.163754,50.3036384 C106.163754,50.5127395 106.014397,50.6780289 105.826208,50.6780289 L75.1692617,50.6780289 C74.9850552,50.6780289 74.8356985,50.5127395 74.8356985,50.3036384 L74.8356985,41.0892497 C74.8356985,40.8851272 74.9850552,40.7178463 75.1692617,40.7178463 L105.826208,40.7178463 Z M105.395364,26.7894225 C105.554677,26.9497333 105.442162,27.2245519 105.21514,27.2245519 L75.7839141,27.2245519 C75.5578877,27.2245519 75.4443767,26.9497333 75.6046861,26.7894225 L90.3193033,12.074679 C90.4188744,11.975107 90.5801796,11.975107 90.6797507,12.074679 L105.395364,26.7894225 Z M119.209958,70.3958649 C119.049648,70.55518 118.774832,70.4426637 118.774832,70.2156397 L118.774832,40.7841612 C118.774832,40.5571371 119.049648,40.4446208 119.209958,40.603936 L133.924575,55.3196752 C134.025142,55.4192471 134.025142,55.5805537 133.924575,55.6801257 L119.209958,70.3958649 Z M75.6047857,84.2105775 C75.4444762,84.0502667 75.5579873,83.7754481 75.7840137,83.7754481 L105.21524,83.7754481 C105.442262,83.7754481 105.554777,84.0502667 105.395463,84.2105775 L90.6798503,98.925321 C90.5802792,99.024893 90.418974,99.024893 90.3194029,98.925321 L75.6047857,84.2105775 Z M61.7892955,40.6040355 C61.949605,40.4447204 62.2244212,40.5572367 62.2244212,40.7842608 L62.2244212,70.2157392 C62.2244212,70.4427633 61.949605,70.5552796 61.7892955,70.3959645 L47.0746783,55.6802252 C46.9751072,55.5806533 46.9751072,55.4193467 47.0746783,55.3197748 L61.7892955,40.6040355 Z"/>
  </g>
</svg>
