<svg xmlns="http://www.w3.org/2000/svg" viewBox="0 0 180 110">
  <g id="icon/life-on-land" fill="none" fill-rule="evenodd">
    <rect id="icon/base" width="180" height="110" fill-rule="nonzero"/>
    <path id="icon" fill="#FFF" d="M76.4788068,61.4202262 C76.682892,61.4202262 76.8467633,61.5853091 76.8467633,61.7884112 L76.8467633,73.913504 C76.8467633,74.1196076 76.682892,74.2826896 76.4788068,74.2826896 L71.5475872,74.2826896 C71.3424967,74.2826896 71.17762,74.1196076 71.17762,73.913504 L71.17762,61.7884112 C71.17762,61.5853091 71.3424967,61.4202262 71.5475872,61.4202262 L76.4788068,61.4202262 Z M130.627017,79.4888056 C130.827081,79.4888056 131,79.6628931 131,79.8689967 L131,84.8114803 C131,85.0125813 130.827081,85.1756633 130.627017,85.1756633 L49.3709725,85.1756633 C49.1678927,85.1756633 49,85.0125813 49,84.8114803 L49,79.8689967 C49,79.6628931 49.1678927,79.4888056 49.3709725,79.4888056 L130.627017,79.4888056 Z M130.627017,89.3131424 C130.827081,89.3131424 131,89.4752238 131,89.6763249 L131,94.633816 C131,94.832916 130.827081,95 130.627017,95 L49.3709725,95 C49.1678927,95 49,94.832916 49,94.633816 L49,89.6763249 C49,89.4752238 49.1678927,89.3131424 49.3709725,89.3131424 L130.627017,89.3131424 Z M115.164904,47.9973812 C116.209458,47.1739674 118.905794,45.3570544 122.180205,45.3570544 C124.578959,45.3570544 126.799767,46.309533 128.784319,48.1904782 C128.922051,48.3195431 129.002479,48.5066371 129.002479,48.6907296 L129.002479,49.0819262 C129.002479,49.394083 128.791356,49.6632183 128.490758,49.748261 C128.29371,49.7962851 128.086609,49.754264 128.014224,49.7332535 C127.825219,49.6662198 127.68246,49.573173 127.56584,49.4591157 C127.138568,49.1749729 125.979405,48.7857774 124.302489,48.7857774 C122.581337,48.7857774 119.205387,49.2440076 115.918913,52.2825345 L115.85256,52.3515692 C115.685673,52.5306592 115.421267,52.6367124 115.164904,52.6367124 C114.895471,52.6367124 114.642124,52.5326602 114.458146,52.3445656 L114.38375,52.277532 C111.114367,49.2440076 107.731379,48.7857774 106.011233,48.7857774 C104.346381,48.7857774 103.183196,49.1749729 102.755924,49.4591157 C102.641315,49.573173 102.500566,49.6632183 102.349765,49.7162449 C102.302513,49.7332535 102.244203,49.748261 102.197957,49.754264 C101.986835,49.8052897 101.801851,49.754264 101.62491,49.6221977 C101.466066,49.4881303 101.393681,49.2860287 101.393681,49.0689196 L101.393681,48.6286984 C101.393681,48.4346009 101.471093,48.2525094 101.610836,48.1214435 C103.577291,46.287522 105.773971,45.3610564 108.135528,45.3610564 C111.440099,45.3610564 114.149505,47.206984 115.164904,47.9973812 Z M110.122493,15.7683861 C111.142918,15.2571292 112.165355,15 113.16869,15 C116.022865,15 117.904872,17.0600352 118.648828,18.0565359 C119.27918,17.8264203 120.349872,17.5102614 121.573378,17.5102614 C123.217118,17.5102614 125.507295,18.080548 127.085687,20.806918 C127.148019,20.9059677 127.18019,21.0280291 127.18019,21.1540924 C127.18019,21.2241276 127.171142,21.2911613 127.151035,21.3511915 L127.083677,21.5893111 C127.029388,21.7694016 126.904725,21.9204775 126.737838,22.0035193 C126.633282,22.0565459 126.526715,22.0835595 126.416127,22.0835595 C126.391999,22.0835595 126.36586,22.0835595 126.342737,22.0795575 C126.302523,22.076556 126.260299,22.0715535 126.223101,22.0625489 C126.149711,22.0365359 126.028064,21.9755052 125.958695,21.9364856 C125.849112,21.8544444 125.750588,21.7513926 125.687252,21.6343338 C125.374589,21.2881598 124.033458,20.454741 121.981548,20.454741 C120.769102,20.454741 119.541575,20.7568928 118.356272,21.346189 L118.302989,21.372202 C118.195417,21.4332327 118.04361,21.4732528 117.893813,21.4732528 C117.818413,21.4732528 117.697771,21.4542433 117.634434,21.4332327 C117.416274,21.3772045 117.232296,21.2311311 117.114671,21.0190246 L117.087526,20.9669984 C114.921007,17.3031573 111.645591,17.1941025 111.281656,17.1941025 C111.012224,17.1941025 110.861422,17.2331221 110.790042,17.2481297 C110.664374,17.3131624 110.5377,17.3431774 110.395947,17.34818 C110.368802,17.3571845 110.33261,17.34818 110.294407,17.3431774 C110.097359,17.3341729 109.918408,17.2351231 109.791734,17.0710407 C109.66305,16.8999547 109.624847,16.6758421 109.685167,16.4637355 L109.767606,16.1946003 C109.82491,16.0045048 109.949573,15.8474258 110.122493,15.7683861 Z M92.9531019,28.2091376 C92.9450591,28.0200426 93.0114119,27.829947 93.1421068,27.6908772 C94.8059536,25.9349948 96.7442597,25.0405454 98.9067579,25.0405454 C101.366838,25.0405454 103.463989,26.2451507 104.327581,26.8314453 C105.272606,26.0080315 107.551724,24.3281874 110.410926,24.3281874 C112.246687,24.3281874 113.990962,25.0105303 115.607557,26.36321 C115.752327,26.4862719 115.840797,26.6553568 115.852862,26.8444518 L115.870958,27.1606107 C115.891065,27.4727676 115.700049,27.7549093 115.409504,27.8549596 C115.358232,27.8719682 115.291879,27.8909777 115.238595,27.8969807 C115.110917,27.9099873 114.990275,27.8889767 114.942019,27.8769707 C114.769099,27.829947 114.630361,27.7549093 114.519773,27.6588611 C114.225207,27.4927776 113.468182,27.2736675 112.40151,27.2736675 C110.90254,27.2736675 107.986033,27.6978807 105.277632,30.550314 L105.223344,30.6103442 C105.077569,30.7794292 104.841312,30.8974885 104.584949,30.916498 L104.525634,30.916498 C104.296415,30.916498 104.073228,30.8314553 103.898298,30.6813799 L103.841999,30.6233507 C101.394988,28.6233457 98.9952283,28.2041351 97.4168359,28.2041351 C95.776112,28.2041351 94.6631945,28.6563623 94.3173557,28.904487 C94.2258693,29.0175438 94.1062331,29.1055881 93.9664901,29.1626167 C93.9323084,29.1766238 93.8870678,29.1906308 93.8478593,29.1996353 C93.6668972,29.252662 93.4618067,29.2186449 93.3019567,29.1175941 C93.1069197,28.9965333 92.988289,28.8004347 92.9762248,28.5723201 L92.9531019,28.2091376 Z M51.8335663,34.7006996 C51.8335663,29.8582663 55.778542,25.9342945 60.6424035,25.9342945 C60.8334192,25.9342945 61.0194081,25.951303 61.2074077,25.9623086 C61.6718773,19.8342292 66.8021554,15.0008004 73.0795326,15.0008004 C79.6635403,15.0008004 84.9999142,20.3104685 84.9999142,26.8617605 C84.9999142,28.7186936 84.5585675,30.466572 83.7955103,32.0313583 C89.7612304,33.3460189 94.2259698,38.6336759 94.2259698,44.9628563 C94.2259698,52.283535 88.261255,58.2185173 80.9061473,58.2185173 C80.3682875,58.2185173 63.1306336,58.1154655 63.1306336,58.1154655 C57.9199279,58.114465 53.6974768,53.9143545 53.6974768,48.7297492 C53.6974768,46.2394978 54.678694,43.9843646 56.2691506,42.3045205 C53.6220759,40.7917604 51.8335663,37.9573361 51.8335663,34.7006996 Z"/>
  </g>
</svg>
