<svg xmlns="http://www.w3.org/2000/svg" viewBox="0 0 180 110">
  <g id="icon/peace-justice-and-strong-institutions" fill="none" fill-rule="evenodd">
    <rect id="icon/base" width="180" height="110" fill-rule="nonzero"/>
    <path id="icon" fill="#FFF" d="M82.1391932,70.1431085 L82.1391932,77.5882617 L85.0143902,77.6534909 L85.0143902,70.065837 C84.0536536,70.1310662 83.0949207,70.1601684 82.1391932,70.1431085 Z M123.31462,71.7858792 C123.958784,71.7858792 124.483733,72.3107228 124.483733,72.954986 L124.483733,86.3068885 C124.483733,86.9521552 123.958784,87.4790059 123.31462,87.4790059 L109.878333,87.4790059 C109.234169,87.4790059 108.710222,86.9521552 108.710222,86.3068885 L108.710222,82.2355868 L99.9403696,81.2681886 L55.7224436,82.2506397 L55.7224436,77.0152489 L80.0273759,77.539089 L80.0273759,70.0347277 C77.2754016,69.8159593 74.588545,69.2720486 72.0399383,68.3939641 C67.6630268,66.8836587 62.7701827,62.5434123 58.6397167,61.2538824 C60.8897838,61.7656803 66.438814,62.6277084 70.3849468,59.9011305 C75.4360769,56.4068558 76.2505491,55.9693189 79.3922279,55.4595281 C72.6139759,54.8825011 67.6590195,50.6988046 65.6944685,41.4523237 C63.8190787,32.6393656 62.5237373,29.1731896 58.8200427,27.5926374 C64.2348301,27.0657867 72.1301012,27.0125999 81.181462,36.2952078 C88.0428643,43.3259052 95.0655582,43.1482812 100.652657,37.9429961 C106.236751,32.735704 110.151827,30.226891 113.193325,33.6418872 C113.926651,34.4657814 114.641943,35.1732666 115.30414,35.7723712 C116.001401,32.3884843 118.057117,30.2549897 120.0948,28.1676574 C121.211819,27.0206281 122.371916,25.8374719 123.255513,24.4606354 L123.983829,24.9302852 C123.050142,26.380379 121.862996,27.5966515 120.715922,28.7747901 C118.626145,30.9143058 116.599482,33.0076593 116.04548,36.4166343 C117.675427,37.7814286 118.829513,38.4016071 118.829513,38.4016071 C118.829513,38.4016071 117.611311,38.2882088 115.904225,38.4899173 C115.924261,40.2470899 116.278902,42.3083306 117.112409,44.8131295 C116.822886,44.8452423 116.531359,44.8693269 116.237828,44.8863868 C115.449403,42.4367819 115.091757,40.3815623 115.053688,38.6133509 C114.198141,38.7598656 113.261448,38.9846553 112.315739,39.3409067 C109.011767,40.5832709 106.711609,43.3780885 106.980094,50.5763746 C107.24858,57.6442024 104.559719,65.340237 92.2244227,68.8264834 C90.533366,69.3051649 88.828284,69.6443564 87.1272092,69.8631249 L87.1272092,77.7026636 L99.9403696,77.9966965 L108.710222,77.0303017 L108.710222,72.954986 C108.710222,72.3107228 109.234169,71.7858792 109.878333,71.7858792 L123.31462,71.7858792 Z M118.794249,18.610485 C118.794249,18.610485 121.183568,19.8578668 121.654419,21.9572415 C122.127274,24.0556126 120.508347,26.2081741 120.508347,26.2081741 C120.508347,26.2081741 118.12003,24.9607923 117.646174,22.8614176 C117.175323,20.76405 118.794249,18.610485 118.794249,18.610485 Z M116.156681,30.9085857 C116.156681,30.9085857 113.767363,29.6591968 113.292504,27.5608257 C112.822655,25.461451 114.442583,23.3108966 114.442583,23.3108966 C114.442583,23.3108966 116.829898,24.5552678 117.303755,26.655646 C117.775608,28.7540171 116.156681,30.9085857 116.156681,30.9085857 Z M122.809306,28.601682 C122.809306,28.601682 124.252916,26.5946317 126.200436,26.4210218 C128.147956,26.2484155 129.855042,27.9754823 129.855042,27.9754823 C129.855042,27.9754823 128.412434,29.9825327 126.464914,30.155139 C124.519397,30.3297524 122.809306,28.601682 122.809306,28.601682 Z M125.610269,19.3768772 C127.195134,17.7702334 129.989184,18.0130865 129.989184,18.0130865 C129.989184,18.0130865 130.212588,20.8610909 128.628725,22.4697418 C127.041857,24.0783926 124.24981,23.8355395 124.24981,23.8355395 C124.24981,23.8355395 124.026406,20.9865316 125.610269,19.3768772 Z M122.115753,35.0039719 C120.175245,34.7741647 118.854859,32.7350015 118.854859,32.7350015 C118.854859,32.7350015 120.678154,31.0661391 122.620665,31.2949429 C124.558168,31.5247501 125.879556,33.5649168 125.879556,33.5649168 C125.879556,33.5649168 124.05626,35.2337792 122.115753,35.0039719 Z M123.848284,66.2417036 C124.981332,66.2417036 125.898991,67.1589256 125.898991,68.2949161 C125.898991,69.4299031 124.981332,70.3511392 123.848284,70.3511392 L109.349076,70.3511392 C108.215026,70.3511392 107.295364,69.4299031 107.295364,68.2949161 C107.295364,67.1589256 108.215026,66.2417036 109.349076,66.2417036 L123.848284,66.2417036 Z M123.848284,88.8905644 C124.981332,88.8905644 125.898991,89.8077864 125.898991,90.9447804 C125.898991,92.0787639 124.981332,93 123.848284,93 L109.349076,93 C108.215026,93 107.295364,92.0787639 107.295364,90.9447804 C107.295364,89.8077864 108.215026,88.8905644 109.349076,88.8905644 L123.848284,88.8905644 Z M58.6396165,61.253481 C58.2990008,61.1481109 57.9613906,61.0557866 57.6327967,60.993568 C57.6327967,60.993568 58.0044685,61.1089734 58.6396165,61.253481 Z M54.4670745,81.3846978 C54.4670745,82.4895791 53.6976837,83.3847235 52.7509725,83.3847235 L51.7181056,83.3847235 C50.7723961,83.3847235 50,82.4895791 50,81.3846978 L50,77.7659861 C50,76.6601013 50.7723961,75.7659604 51.7181056,75.7659604 L52.7509725,75.7659604 C53.6976837,75.7659604 54.4670745,76.6601013 54.4670745,77.7659861 L54.4670745,81.3846978 Z"/>
  </g>
</svg>
