<?xml version="1.0" encoding="utf-8"?>
<!-- Generator: Adobe Illustrator 18.0.0, SVG Export Plug-In . SVG Version: 6.00 Build 0)  -->
<!DOCTYPE svg PUBLIC "-//W3C//DTD SVG 1.1//EN" "http://www.w3.org/Graphics/SVG/1.1/DTD/svg11.dtd">
<svg version="1.1" id="Layer_1" xmlns="http://www.w3.org/2000/svg" xmlns:xlink="http://www.w3.org/1999/xlink" x="0px" y="0px"
	 viewBox="0 0 6000 2000" enable-background="new 0 0 6000 2000" xml:space="preserve">
<title>104all</title>
<path fill="#FFFFFF" d="M4958.5,194.3C4924.9-974,3886.1-1950.5,2660.4-1950.5c-959,0-1869.7,616-2170,1465.8
	c-202.3,452.9-109.2,1232-27.3,1919.4c25.9,217.7,50.4,420,61.6,590.8c15.1,223.2,12.1,447.2-9.1,669.9L401.5,3881.2l560,53.2
	L1072.1,2750c24-252.9,27.5-507.4,10.5-760.9c-12.6-182-37.8-394.1-64.4-618.8C948.2,810.3,860,46.6,1003.5-260
	c4.2-8.7,7.9-17.5,11.2-26.6c217.7-630,926.1-1102.5,1647.1-1102.5c924-1.4,1736.7,764.4,1736.7,1638c-0.1,34.9,6.3,69.6,18.9,102.2
	L4955,1726.6l-308.7,29.4c-123,11.8-223.7,102.8-247.8,224l-177.8,857.5l-725.2-49c-154.3-10.2-287.6,106.7-297.8,261
	c-0.6,9.6-0.8,19.2-0.4,28.8l32.2,872.2l560-21l-21-560l659.4,44.1c139.4,9.2,264.3-85.8,292.6-222.6l184.1-895.3l473.9-46.9
	c154-14.5,267-151.1,252.5-305c-2.4-26-8.5-51.5-18-75.8L4958.5,194.3z"/>
<path fill="#FFFFFF" d="M2505.8,2480.2h854c154.6,0,280-125.4,280-280v-625.1c548.1-390.7,675.7-1151.7,285.1-1699.8
	S2773.2-800.4,2225.1-409.7S1549.4,741.9,1940.1,1290c78.5,110.2,174.9,206.5,285.1,285.1v625.8
	C2225.5,2355.5,2351.2,2480.6,2505.8,2480.2C2505.8,2480.2,2505.8,2480.2,2505.8,2480.2z M3080.5,1920.2h-294.7v-203.7h294.7V1920.2
	z M2933.5-76.9c363.4-0.4,658.3,293.9,658.7,657.3c0.3,239.4-129.5,460-338.8,576.1h-641.2c-317.8-176.3-432.5-576.8-256.2-894.6
	c116.2-209.5,337.2-339.3,576.8-338.8H2933.5z"/>
</svg>
