<?xml version="1.0" encoding="utf-8"?>
<!-- Generator: Adobe Illustrator 18.1.1, SVG Export Plug-In . SVG Version: 6.00 Build 0)  -->
<!DOCTYPE svg PUBLIC "-//W3C//DTD SVG 1.1//EN" "http://www.w3.org/Graphics/SVG/1.1/DTD/svg11.dtd">
<svg version="1.1" id="Layer_1" xmlns="http://www.w3.org/2000/svg" xmlns:xlink="http://www.w3.org/1999/xlink" x="0px" y="0px"
	 viewBox="155.9 0.8 283.5 283.5" enable-background="new 155.9 0.8 283.5 283.5" xml:space="preserve">
<g>
	<path fill="#67B448" d="M228.7,102.1c3.5-6,7.8-11.5,12.7-16.4L199.8,40c-10.5,10-19.4,21.6-26.4,34.4L228.7,102.1z"/>
	<path fill="#E4B631" d="M330.8,69.8c6.3,2.9,12.2,6.6,17.5,10.9l41.8-45.6c-11-9.5-23.5-17.3-37-23.1L330.8,69.8z"/>
	<path fill="#C32133" d="M426.9,82.4l-55.8,28.7c2.6,6.2,4.5,12.7,5.5,19.6l62-6.9C436.9,109.2,432.8,95.3,426.9,82.4"/>
	<path fill="#4B9E45" d="M367.2,103.1l55.4-27.6c-6.9-12.7-15.6-24.3-25.9-34.3l-41.8,45.6C359.7,91.6,363.8,97.1,367.2,103.1"/>
	<path fill="#438045" d="M217.7,142.5c0-1.2,0-2.5,0.1-3.7l-61.6-5.5c-0.2,3.1-0.3,6.1-0.3,9.2c0,11.8,1.5,23.3,4.2,34.3l59.5-17.1
		C218.4,154.1,217.7,148.4,217.7,142.5"/>
	<path fill="#F8C315" d="M359.4,193.1c-4.4,5.3-9.4,10.1-15,14.2l32.5,52.6c12.1-8.2,22.8-18.2,31.9-29.6L359.4,193.1z"/>
	<path fill="#E74330" d="M377.5,142.5c0,5.8-0.6,11.5-1.8,17l59.5,17.1c2.7-10.9,4.2-22.3,4.2-34.1c0-2.9-0.1-5.8-0.3-8.7l-61.6,5.8
		C377.5,140.6,377.5,141.5,377.5,142.5"/>
	<path fill="#F49D2A" d="M236.8,194.3l-49.2,37.4c9.2,11.2,20,21.1,32.2,29.1l32.5-52.6C246.6,204.3,241.4,199.6,236.8,194.3"/>
	<path fill="#2294D2" d="M218.7,129.8c1.1-7,3.1-13.6,5.9-19.9l-55.3-27.6c-6.1,13-10.3,27.1-12.2,41.9L218.7,129.8z"/>
	<path fill="#A11D45" d="M369.3,264.7l-32.5-52.6c-5.9,3.3-12.3,5.9-19,7.7l11.5,60.9C343.6,277.4,357.1,271.9,369.3,264.7"/>
	<path fill="#28BAE0" d="M373.3,168.1c-2.2,6.3-5,12.3-8.6,17.8l49.4,37.3c8-11.5,14.4-24.3,18.7-38L373.3,168.1z"/>
	<path fill="#EC6C30" d="M309.2,221.6c-3.8,0.6-7.6,0.8-11.5,0.8c-3.2,0-6.3-0.2-9.3-0.5l-11.4,60.9c6.8,1,13.7,1.5,20.8,1.5
		c7.8,0,15.5-0.6,23-1.9L309.2,221.6z"/>
	<path fill="#E5293D" d="M302.7,62.7c6.9,0.4,13.5,1.7,19.8,3.8l22.2-57.7c-13.2-4.7-27.3-7.4-42-7.9V62.7z"/>
	<path fill="#DF1C69" d="M279.5,220.3c-6.9-1.6-13.5-4.1-19.6-7.4l-32.5,52.7c12.5,7.2,26.2,12.5,40.7,15.6L279.5,220.3z"/>
	<path fill="#1C4A6C" d="M273.6,66.2c6.4-2,13.2-3.3,20.2-3.6V0.8c-14.9,0.4-29.2,3.1-42.6,7.7L273.6,66.2z"/>
	<path fill="#C5982E" d="M231.4,187.2c-3.9-5.8-7.1-12.1-9.4-18.9l-59.5,17.1c4.5,14.2,11.2,27.4,19.7,39.3L231.4,187.2z"/>
	<path fill="#056B9F" d="M248.1,79.8c5.2-4.1,11-7.6,17.1-10.4l-22.4-57.7c-13.3,5.6-25.6,13.2-36.5,22.3L248.1,79.8z"/>
</g>
</svg>
