<svg xmlns="http://www.w3.org/2000/svg" viewBox="0 0 180 110">
  <g id="icon/affordable-energy" fill="none" fill-rule="evenodd">
    <rect id="icon/base" width="180" height="110" fill-rule="nonzero"/>
    <path id="icon" fill="#FFF" d="M90.4983983,68.2235854 C97.5149927,68.2235854 103.201147,62.5382245 103.201147,55.522375 C103.201147,49.8119861 99.4350709,44.9845851 94.2524615,43.3837941 L94.2524615,48.1080797 C96.9563881,49.4806154 98.813398,52.2807482 98.813398,55.522375 C98.813398,60.1155139 95.0923706,63.8376784 90.4983983,63.8376784 C85.9054271,63.8376784 82.1833985,60.1155139 82.1833985,55.522375 C82.1833985,52.2897583 84.0313987,49.4946311 86.7233123,48.1200932 L86.7233123,43.3898008 C81.5507137,44.9986008 77.7976516,49.8199951 77.7976516,55.522375 C77.7976516,62.5382245 83.4848071,68.2235854 90.4983983,68.2235854 Z M88.6864371,40.9360555 L88.6864371,49.3204362 C88.6864371,50.1303423 89.5023202,51.0163336 90.5044048,51.0163336 C91.5044872,51.0163336 92.3133627,50.1303423 92.3133627,49.3204362 L92.3133627,40.9360555 C92.3133627,40.1241471 91.5044872,39.2281447 90.5044048,39.2281447 C89.5023202,39.2281447 88.6864371,40.1241471 88.6864371,40.9360555 Z M90.4943939,31.2882613 C103.97999,31.2882613 114.912823,42.2224948 114.912823,55.7095845 C114.912823,69.203682 103.97999,80.1329099 90.4943939,80.1329099 C77.0087978,80.1329099 66.0759646,69.203682 66.0759646,55.7095845 C66.0759646,42.2224948 77.0087978,31.2882613 90.4943939,31.2882613 Z M62.4626537,55.496446 C62.4626537,56.6056871 61.4815918,57.5086974 60.5856221,57.5086974 L49.8920479,57.5086974 C48.9900716,57.5086974 48,56.6056871 48,55.496446 C48,54.3892072 48.9900716,53.4922036 49.8920479,53.4922036 L60.5856221,53.4922036 C61.4815918,53.4922036 62.4626537,54.3892072 62.4626537,55.496446 Z M133,55.496446 C133,56.6056871 132.018938,57.5086974 131.122968,57.5086974 L120.429394,57.5086974 C119.528419,57.5086974 118.538347,56.6056871 118.538347,55.496446 C118.538347,54.3892072 119.528419,53.4922036 120.429394,53.4922036 L131.122968,53.4922036 C132.018938,53.4922036 133,54.3892072 133,55.496446 Z M90.5048052,98 C89.3956047,98 88.4916262,97.0199034 88.4916262,96.1228999 L88.4916262,85.4299363 C88.4916262,84.5289282 89.3956047,83.5388205 90.5048052,83.5388205 C91.6100014,83.5388205 92.5079733,84.5289282 92.5079733,85.4299363 L92.5079733,96.1228999 C92.5079733,97.0199034 91.6100014,98 90.5048052,98 Z M127.387926,76.6079661 C126.836329,77.5710436 125.537923,77.866374 124.760081,77.4208756 L115.479036,72.1099336 C114.696189,71.663434 114.285745,70.3870059 114.836341,69.4249295 C115.385935,68.4638543 116.691348,68.1765328 117.474196,68.6240335 L126.755241,73.9359766 C127.532082,74.3804739 127.93652,75.6478919 127.387926,76.6079661 Z M69.3940559,92.3893226 C68.4310136,91.8377055 68.1336918,90.5362494 68.5791739,89.7603813 L73.8909231,80.4789971 C74.3374064,79.6961212 75.6147889,79.2846608 76.5758291,79.836278 C77.5368693,80.3858929 77.8241803,81.6913535 77.3756949,82.4752305 L72.0639457,91.7546125 C71.6194646,92.5334839 70.3530939,92.9379364 69.3940559,92.3893226 Z M111.688834,92.341369 C110.726793,92.8949884 109.456418,92.4935392 109.010935,91.7186723 L103.680166,82.4483004 C103.228677,81.6654245 103.516989,80.3569606 104.47903,79.8053434 C105.44007,79.2527251 106.710445,79.6631843 107.160933,80.4450591 L112.491703,89.7164321 C112.938186,90.4912991 112.648873,91.7897518 111.688834,92.341369 Z M53.6607269,76.6900579 C53.1071277,75.7279815 53.5085622,74.456559 54.2844019,74.0100595 L63.5544354,68.6790951 C64.3352805,68.2305933 65.6446978,68.5179147 66.1952937,69.4809923 C66.749894,70.4410664 66.3374476,71.7114878 65.5546003,72.1609907 L56.2855679,77.4919551 C55.5087271,77.9384547 54.2113228,77.649131 53.6607269,76.6900579 Z M90.5048052,27.4611795 C89.3956047,27.4611795 88.4916262,26.481083 88.4916262,25.5860816 L88.4916262,14.8901147 C88.4916262,13.9881055 89.3956047,13 90.5048052,13 C91.6100014,13 92.5079733,13.9881055 92.5079733,14.8901147 L92.5079733,25.5860816 C92.5079733,26.481083 91.6100014,27.4611795 90.5048052,27.4611795 Z M66.1673635,41.5697645 C65.6167676,42.532842 64.3173611,42.8281725 63.5405203,42.382674 L54.2584739,37.071732 C53.4766276,36.6232302 53.0651823,35.3488044 53.6157783,34.3847257 C54.1663742,33.4236505 55.470786,33.1373301 56.2536333,33.5858319 L65.5346787,38.897775 C66.3135217,39.3422724 66.7179594,40.6076881 66.1673635,41.5697645 Z M104.430978,31.1674261 C103.466935,30.615809 103.171615,29.3163551 103.616096,28.5384848 L108.927845,19.2581017 C109.37533,18.4742247 110.651711,18.0617632 111.613753,18.6143815 C112.574793,19.1649975 112.862104,20.4684559 112.413618,21.253334 L107.100868,30.5337171 C106.655386,31.3115874 105.391017,31.7160399 104.430978,31.1674261 Z M76.526776,31.1919536 C75.5627326,31.7445719 74.2953609,31.3431227 73.8468754,30.5662535 L68.5171068,21.2968827 C68.0666192,20.5160091 68.3529291,19.206544 69.3169725,18.6549269 C70.2780127,18.1033097 71.5463855,18.5127678 71.9978742,19.2936415 L77.3286439,28.5660156 C77.7751272,29.3418837 77.4858141,30.6393353 76.526776,31.1919536 Z M114.80841,41.5257152 C114.254811,40.56464 114.656246,39.2922164 115.432085,38.8457168 L124.702119,33.5147524 C125.484966,33.0652495 126.79138,33.3545732 127.344979,34.3166496 C127.897577,35.2757226 127.485131,36.546144 126.702284,36.996648 L117.433251,42.3276124 C116.65641,42.7731109 115.360007,42.4847883 114.80841,41.5257152 Z"/>
  </g>
</svg>
