<svg xmlns="http://www.w3.org/2000/svg" viewBox="0 0 180 110">
  <g id="icon/clean-water" fill="none" fill-rule="evenodd">
    <rect id="icon/base" width="180" height="110" fill-rule="nonzero"/>
    <path id="icon" fill="#FFF" d="M116.635643,26.1560484 C114.993357,25.4346071 112.912659,25.6937656 110.914227,26.5022602 C103.398033,29.5401187 98.2825666,30.6337877 90.3761166,28.164277 C85.3980929,26.6103263 80.7400993,23.3543344 75.2333738,25.3375477 C71.5796127,26.647349 68.1746525,27.8981141 64.0433544,27.8660946 L61.6566719,15.6656307 L118.351165,15.6656307 L116.635643,26.1560484 Z M97.4187862,62.3892146 C97.4187862,62.3892146 94.6669283,65.2089396 90.1905192,64.9047535 C85.7030746,65.2089396 82.9542264,62.3892146 82.9542264,62.3892146 C78.4146138,57.8664477 80.0348291,52.2400057 81.6149153,49.3332274 C82.5900541,47.5121133 89.5635009,37.0677238 90.1624288,36.1801808 L90.1624288,36.1091374 C90.1624288,36.1091374 90.1724611,36.1231459 90.1905192,36.1421576 L90.2145967,36.1091374 L90.2145967,36.1801808 C90.7974729,37.0677238 97.7819552,47.5121133 98.7580973,49.3332274 C100.339187,52.2400057 101.953383,57.8664477 97.4187862,62.3892146 Z M120.832151,13.2391463 C120.689693,13.085052 120.499079,13 120.283385,13 L59.7053909,13 C59.495716,13 59.3040992,13.085052 59.1616407,13.2391463 C59.0282112,13.4082498 58.9760432,13.6163771 59.010153,13.8104958 L69.1869109,75.2050549 C69.2430917,75.5432618 69.5410508,75.795416 69.8851585,75.795416 L82.3763663,75.795416 L83.2301144,85.7955337 L77.9751994,85.8015374 L90.2045644,98 L102.465029,85.7735203 L97.2101145,85.7795239 L98.0628594,75.795416 L110.773774,75.795416 C111.124905,75.795416 111.417848,75.5432618 111.470016,75.1940481 L120.991665,13.8104958 C121.023768,13.5993667 120.961568,13.3982436 120.832151,13.2391463 Z"/>
  </g>
</svg>
