<svg xmlns="http://www.w3.org/2000/svg" viewBox="0 0 180 110">
  <g id="icon/industry-innovation-and-infrastructure" fill="none" fill-rule="evenodd">
    <rect id="icon/base" width="180" height="110" fill-rule="nonzero"/>
    <path id="icon" fill="#FFF" d="M130.285993,84.1233836 L112.425234,94.3282421 L112.425234,73.9145427 L130.285993,63.7047062 L130.285993,84.1233836 Z M71.284751,94.3282421 L71.284751,75.4666768 L87.783982,84.8989529 L71.284751,94.3282421 Z M68.5707441,94.3282421 L50.7140069,84.1233836 L50.7140069,63.7047062 L68.5707441,73.9145427 L68.5707441,94.3282421 Z M87.783982,37.8610265 L71.284751,47.2942982 L71.284751,28.4297461 L87.783982,37.8610265 Z M109.712232,47.2942982 L93.2140069,37.8610265 L109.712232,28.4297461 L109.712232,47.2942982 Z M93.2140069,61.3779985 L111.068733,51.17314 L128.928487,61.3770029 L111.068733,71.5868394 L93.2140069,61.3779985 Z M89.1424938,59.0502952 L72.6432627,49.6220015 L89.1424938,40.1877343 L89.1424938,59.0502952 Z M108.353721,49.6220015 L91.8565007,59.0502952 L91.8565007,40.1877343 L108.353721,49.6220015 Z M89.1424938,82.5712495 L72.6422572,73.1389735 L89.1424938,63.7047062 L89.1424938,82.5712495 Z M132.321247,60.2131512 L112.425234,48.8444411 L112.425234,26.1030383 C112.425234,25.6221655 112.16781,25.1791253 111.746481,24.9381911 L91.1777475,13.1792073 C90.7574234,12.9402642 90.241571,12.9402642 89.8212469,13.1792073 L69.2494972,24.9381911 C68.8291731,25.1791253 68.5707441,25.6221655 68.5707441,26.1030383 L68.5707441,48.8444411 L48.6787531,60.2131512 C48.2574234,60.4540855 48,60.8971257 48,61.3770029 L48,84.8989529 C48,85.3798257 48.2574234,85.8228659 48.6787531,86.0628045 L69.2494972,97.8197971 C69.4596593,97.9392686 69.6939548,98 69.9282503,98 C70.1625458,98 70.3958358,97.9392686 70.6070034,97.8197971 L90.5,86.451087 L110.38998,97.8197971 C110.600142,97.9392686 110.834437,98 111.068733,98 C111.304034,98 111.536318,97.9402642 111.746481,97.8197971 L132.321247,86.0628045 C132.741571,85.8228659 133,85.3798257 133,84.8989529 L133,61.3770029 C133,60.8971257 132.741571,60.4540855 132.321247,60.2131512 Z"/>
  </g>
</svg>
