<svg xmlns="http://www.w3.org/2000/svg" viewBox="0 0 180 110">
  <g id="icon/no-poverty" fill="none" fill-rule="evenodd">
    <rect id="icon/base" width="180" height="110" fill-rule="nonzero"/>
    <path id="icon" fill="#FFF" d="M63.4384773,67.5893917 L65.3751773,74.7234 L63.4384773,74.7234 L63.4384773,80.5545 C63.4384773,81.5475 62.6334773,82.3445 61.6454773,82.3445 C60.6564773,82.3445 59.8534773,81.5475 59.8534773,80.5545 L59.8534773,74.9395 C59.8534773,74.9395 59.8652385,74.8461163 59.8549202,74.7234 L58.7718832,74.7234 C58.7615985,74.8461163 58.7734773,74.9395 58.7734773,74.9395 L58.7734773,80.5545 C58.7734773,81.5475 57.9764773,82.3445 56.9894773,82.3445 C55.9994773,82.3445 55.1984773,81.5475 55.1984773,80.5545 L55.1914773,80.5545 L55.1914773,74.7234 L53.2601773,74.7234 L55.1914773,67.6311056 L55.1914773,66.3255 C55.1914773,65.9085 54.9674773,65.4525 54.9674773,65.4525 L51.3054773,58.8265 C51.3054773,58.8265 51.2818178,58.7586395 51.2547637,58.6644693 C50.9656508,59.2594419 50.3554801,59.6717 49.6482773,59.6717 C48.6612773,59.6717 47.8602773,58.8687 47.8602773,57.8867 L47.8602773,46.9157 C47.8602773,46.5047 47.7472773,45.9477 46.9902773,45.9477 C46.4752773,45.9477 46.3582773,46.4987 46.3432773,46.8497 L46.3432773,79.7297 C46.3432773,81.1427 45.1982773,82.2967 43.7772773,82.2967 C42.3582773,82.2967 41.2122773,81.1427 41.2122773,79.7297 L41.2122773,60.7827 C41.2062773,60.5737 41.1262773,60.0297 40.4712773,60.0297 L40.4692773,60.0297 C39.8172773,60.0297 39.7482773,60.5737 39.7372773,60.7827 L39.7372773,79.7297 C39.7372773,81.1427 38.5902773,82.2967 37.1712773,82.2967 C35.7502773,82.2967 34.6072773,81.1427 34.6072773,79.7297 L34.6072773,46.8497 C34.5852773,46.4987 34.4772773,45.9477 33.9582773,45.9477 C33.2052773,45.9477 33.0862773,46.5047 33.0862773,46.9157 L33.0862773,57.8867 C33.0862773,58.6113324 32.6512072,59.2384959 32.0261699,59.5174625 C32.0568673,59.6471004 32.0614806,59.7851341 32.0351863,59.9244965 L27.9431863,81.6124965 C27.8428381,82.1443517 27.330336,82.4941572 26.7984808,82.393809 C26.2666256,82.2934608 25.9168201,81.7809587 26.0171683,81.2491035 L30.1091683,59.5611035 C30.1271974,59.4655472 30.1585309,59.3758674 30.2008906,59.293619 C29.7814196,58.966264 29.5112773,58.4566288 29.5112773,57.8867 L29.5112773,45.1127 C29.5112773,41.9057 31.9652773,39.2767 35.0902773,38.9937 C35.1992773,38.9807 35.3092773,38.9657 35.4422773,38.9657 L45.5122773,38.9657 C45.6362773,38.9657 45.7462773,38.9807 45.8502773,38.9937 C48.9812773,39.2767 51.4332773,41.9057 51.4332773,45.1127 L51.4332773,57.4657936 C51.6744119,57.1387165 52.0627154,56.9255 52.4994773,56.9255 C52.9724773,56.9255 53.3824773,57.1745 53.6204773,57.5465 L53.6314773,57.5385 C53.7394773,57.6305 55.4274773,60.6495 55.9944773,61.2075 C56.5824773,61.8045 57.1164773,61.7375 57.1164773,61.7375 L61.5164773,61.7375 C61.5164773,61.7375 62.0464773,61.8045 62.6384773,61.2075 C63.1984773,60.6495 64.8924773,57.6305 64.9984773,57.5385 L65.0144773,57.5465 C65.2454773,57.1745 65.6554773,56.9255 66.1344773,56.9255 C66.5500125,56.9255 66.9204327,57.1169168 67.1630524,57.4152356 C67.1820196,57.015771 67.2703773,56.7207 67.2703773,56.7207 L70.8953773,44.9127 C70.8953773,44.9127 72.1963773,41.4997 75.0643773,41.4997 L84.3113773,41.4997 C87.1823773,41.4997 88.4753773,44.9127 88.4753773,44.9127 L92.1023773,56.7207 C92.1023773,56.7207 92.7513773,58.8847 90.9123773,59.4257 C89.0873773,59.9667 88.5303773,57.8527 88.5303773,57.8527 L85.6083773,47.9987 C85.6083773,47.9987 85.4483773,47.2407 84.8783773,47.4047 C84.3113773,47.5677 84.5273773,48.3787 84.5273773,48.3787 L89.6123773,66.8467 L84.8783773,66.8467 L84.8783773,80.0737 C84.8783773,81.3257 83.8643773,82.3447 82.6043773,82.3447 C81.3433773,82.3447 80.3323773,81.3257 80.3323773,80.0737 L80.3323773,66.8467 L79.0403773,66.8467 L79.0403773,80.0737 C79.0403773,81.3257 78.0253773,82.3447 76.7693773,82.3447 C75.5153773,82.3447 74.4933773,81.3257 74.4933773,80.0737 L74.4933773,66.8467 L69.7603773,66.8467 L74.8483773,48.3787 C74.8483773,48.3787 75.0643773,47.5677 74.4933773,47.4047 C73.9233773,47.2407 73.7653773,47.9987 73.7653773,47.9987 L70.8393773,57.8527 C70.8393773,57.8527 70.2853773,59.9667 68.4593773,59.4257 C67.8882285,59.2574956 67.5572983,58.9323999 67.3724236,58.5642322 C67.2508585,58.8962516 67.0434773,59.3355 67.0434773,59.3355 L63.6594773,65.4525 C63.6594773,65.4525 63.4384773,65.9085 63.4384773,66.3255 L63.4384773,67.5893917 Z M137.582877,32.609 C137.582877,30.061 139.647877,28 142.193877,28 C144.734877,28 146.794877,30.061 146.794877,32.609 C146.794877,35.154 144.734877,37.217 142.193877,37.217 C139.647877,37.217 137.582877,35.154 137.582877,32.609 Z M147.572177,38.9937 C150.698177,39.2767 153.149177,41.9057 153.149177,45.1127 L153.149177,57.8867 C153.149177,58.8687 152.349177,59.6717 151.365177,59.6717 C150.374177,59.6717 149.577177,58.8687 149.577177,57.8867 L149.577177,46.9157 C149.577177,46.5047 149.458177,45.9477 148.705177,45.9477 C148.185177,45.9477 148.077177,46.4987 148.058177,46.8497 L148.058177,79.7297 C148.058177,81.1427 146.913177,82.2967 145.493177,82.2967 C144.072177,82.2967 142.922177,81.1427 142.922177,79.7297 L142.922177,60.7827 C142.915177,60.5737 142.845177,60.0297 142.194177,60.0297 L142.191177,60.0297 C141.536177,60.0297 141.456177,60.5737 141.449177,60.7827 L141.449177,79.7297 C141.449177,81.1427 140.306177,82.2967 138.885177,82.2967 C137.463177,82.2967 136.318177,81.1427 136.318177,79.7297 L136.318177,46.8497 C136.301177,46.4987 136.189177,45.9477 135.673177,45.9477 C134.916177,45.9477 134.802177,46.5047 134.802177,46.9157 L134.802177,57.8867 C134.802177,58.8687 134.001177,59.6717 133.014177,59.6717 C132.027177,59.6717 131.231177,58.8687 131.231177,57.8867 L131.231177,45.1127 C131.231177,41.9057 133.683177,39.2767 136.814177,38.9937 C136.916177,38.9807 137.028177,38.9657 137.152177,38.9657 L147.221177,38.9657 C147.354177,38.9657 147.462177,38.9807 147.572177,38.9937 Z M110.182577,35.0289 C110.182577,37.4399 108.233577,39.3919 105.823577,39.3919 C103.411577,39.3919 101.457577,37.4399 101.457577,35.0289 C101.457577,32.6189 103.411577,30.6609 105.823577,30.6609 C108.233577,30.6609 110.182577,32.6189 110.182577,35.0289 Z M97.0306773,44.9127 C97.0306773,44.9127 98.3296773,41.4997 101.198677,41.4997 L110.444677,41.4997 C113.315677,41.4997 114.611677,44.9127 114.611677,44.9127 L118.238677,56.7207 C118.238677,56.7207 118.887677,58.8847 117.047677,59.4257 C115.223677,59.9667 114.666677,57.8527 114.666677,57.8527 L111.742677,47.9987 C111.742677,47.9987 111.584677,47.2407 111.013677,47.4047 C110.444677,47.5677 110.658677,48.3787 110.658677,48.3787 L115.745677,66.8467 L111.013677,66.8467 L111.013677,80.0737 C111.013677,81.3257 109.996677,82.3447 108.737677,82.3447 C107.478677,82.3447 106.465677,81.3257 106.465677,80.0737 L106.465677,66.8467 L105.173677,66.8467 L105.173677,80.0737 C105.173677,81.3257 104.158677,82.3447 102.903677,82.3447 C101.647677,82.3447 100.628677,81.3257 100.628677,80.0737 L100.628677,66.8467 L95.8936773,66.8467 L100.984677,48.3787 C100.984677,48.3787 101.198677,47.5677 100.628677,47.4047 C100.058677,47.2407 99.8996773,47.9987 99.8996773,47.9987 L96.9746773,57.8527 C96.9746773,57.8527 96.4206773,59.9667 94.5926773,59.4257 C92.7566773,58.8847 93.4036773,56.7207 93.4036773,56.7207 L97.0306773,44.9127 Z M84.0492773,35.0289 C84.0492773,37.4399 82.0982773,39.3919 79.6882773,39.3919 C77.2762773,39.3919 75.3242773,37.4399 75.3242773,35.0289 C75.3242773,32.6189 77.2762773,30.6609 79.6882773,30.6609 C82.0982773,30.6609 84.0492773,32.6189 84.0492773,35.0289 Z M124.835877,59.4488 C122.826877,59.4488 121.203877,57.8238 121.203877,55.8138 C121.203877,53.8058 122.826877,52.1848 124.835877,52.1848 C126.844877,52.1848 128.465877,53.8058 128.465877,55.8138 C128.465877,57.8238 126.844877,59.4488 124.835877,59.4488 Z M116.128377,70.732 L116.115377,70.729 C116.128377,70.579 117.136377,68.076 117.434377,67.302 C119.522377,61.931 120.120377,60.961 122.012377,60.902 C123.908377,60.845 124.825377,60.883 124.825377,60.883 C124.825377,60.883 125.683377,60.849 127.120377,60.883 C128.555377,60.922 130.045377,60.902 130.865377,63.293 C131.131377,64.074 133.400377,69.636 133.444377,69.776 L133.431377,69.79 C133.698377,70.162 133.772377,70.655 133.579377,71.115 C133.284377,71.819 132.477377,72.153 131.779377,71.859 C131.572377,71.775 130.900377,69.848 130.900377,69.848 L129.353377,65.537 C129.353377,65.537 129.123377,65.225 129.123377,65.661 L129.123377,80.483 C129.123377,81.515 128.283377,82.346 127.255377,82.346 C126.225377,82.346 125.388377,81.515 125.388377,80.483 L125.388377,74.633 C125.388377,74.633 125.491377,73.807 124.825377,73.807 C124.158377,73.807 124.266377,74.633 124.266377,74.633 L124.266377,80.483 C124.266377,81.515 123.434377,82.346 122.403377,82.346 C121.370377,82.346 120.540377,81.515 120.540377,80.483 L120.531377,80.483 L120.531377,65.661 C120.531377,65.225 120.189377,65.647 120.189377,65.647 L118.214377,71.943 C118.214377,71.943 117.657377,72.909 116.657377,72.45 C115.805377,72.057 115.950377,71.157 116.128377,70.732 Z M45.0814773,32.609 C45.0814773,35.154 43.0144773,37.217 40.4694773,37.217 C37.9274773,37.217 35.8684773,35.154 35.8684773,32.609 C35.8684773,30.061 37.9274773,28 40.4694773,28 C43.0144773,28 45.0814773,30.061 45.0814773,32.609 Z M59.3143773,59.4488 C57.3063773,59.4488 55.6843773,57.8238 55.6843773,55.8138 C55.6843773,53.8058 57.3063773,52.1848 59.3143773,52.1848 C61.3233773,52.1848 62.9443773,53.8058 62.9443773,55.8138 C62.9443773,57.8238 61.3233773,59.4488 59.3143773,59.4488 Z"/>
  </g>
</svg>
