<svg xmlns="http://www.w3.org/2000/svg" viewBox="0 0 180 110">
  <g id="icon/quality-education" fill="none" fill-rule="evenodd">
    <rect id="icon/base" width="180" height="110" fill-rule="nonzero"/>
    <path id="icon" fill="#FFF" d="M80.2291667,39.1981124 L80.2291667,86.7658537 L50.3728375,77.7517017 L50.3728375,21.9484262 L80.2291667,39.1981124 Z M83.5129528,39.3125032 L113.562316,21.9497272 L113.562316,77.7449964 L83.5129528,86.785169 L83.5129528,39.3125032 Z M130.813396,76.7621165 L129.934239,76.7621165 L129.934239,27.1137244 L136.9985,27.1137244 L136.9985,76.7621165 L136.121343,76.7621165 L136.9985,76.7621165 L133.46987,89.1159183 L129.936239,76.7621165 L130.813396,76.7621165 Z M119.975561,24.3445273 L119.975561,81.5599232 L117.036037,82.4256101 L83.7510954,93 L80.0774396,93 L44,83.0060706 L44,24.3445273 L47.2025716,21.8155207 L47.2025716,80.759288 L80.2294668,89.9916131 L83.6010686,89.9916131 L116.77599,79.2651024 L116.77599,21.8155207 L119.975561,24.3445273 Z M137,20.5358054 L137,24.3458283 L129.936739,24.3458283 L129.936739,20.5358054 C129.936739,18.5822554 131.517021,17 133.47037,17 C135.417718,17 137,18.5822554 137,20.5358054 Z"/>
  </g>
</svg>
