<svg xmlns="http://www.w3.org/2000/svg" viewBox="0 0 180 110">
  <g id="icon/responsible-consumption" fill="none" fill-rule="evenodd">
    <rect id="icon/base" width="180" height="110" fill-rule="nonzero"/>
    <path id="icon" fill="#FFF" d="M133.038519,34.4969406 C125.682841,28.650813 115.93997,28.5309906 112.373187,29.3858583 L111.958979,29.4825218 C107.837919,30.4612397 101.291646,32.083374 93.6288144,41.6510462 C93.5857929,41.7044125 93.5417709,41.7597926 93.5007504,41.8151727 L93.4047024,41.9329814 C93.3306653,42.0387071 93.2776388,42.164571 93.2776388,42.3045317 C93.2776388,42.4203265 93.3056528,42.5270591 93.3606803,42.6247295 L93.5387694,42.9197545 C94.4992496,44.539875 95.7118559,46.6231747 96.7373687,48.5433547 C96.7483742,48.563493 96.7573787,48.5785966 96.7653827,48.6027625 C96.8744372,48.8152208 97.0925463,48.9642437 97.3496748,48.9642437 C97.5277639,48.9642437 97.6868434,48.892753 97.801901,48.7799789 C97.8509255,48.7155366 97.89995,48.6500874 97.941971,48.5826243 C104.743372,39.1176571 110.090045,37.8106861 113.708854,36.9538045 L114.141071,36.8510995 C116.018009,36.3979894 123.157579,36.425176 128.311156,40.5192778 C132.333167,43.7152146 134.374187,48.8001172 134.374187,55.632011 C134.374187,67.0916697 128.836418,71.5744393 124.188094,73.317403 C116.988494,76.0249877 110.085043,72.4041343 110.034017,72.3769477 L109.724862,72.225911 C105.769885,70.498051 99.867934,66.9033773 94.3061531,55.6602046 C83.0945473,32.9996634 73.7168584,30.8660181 67.5127564,29.4503007 L67.1805903,29.3757892 C64.3561781,28.7313659 54.5432716,28.2752351 46.8304152,34.4717679 C42.8004002,37.7069742 38,43.9971497 38,55.5856931 C38,62.6471628 39.4407204,67.3091626 43.1455728,72.214835 C43.957979,73.3314997 52.2611306,84.0661822 68.3131566,80.9709365 C70.8814407,80.4755361 74.3621811,79.2420697 78.190095,76.3532408 L81.7228614,79.5612606 C81.9529765,79.772712 82.3211606,79.7545876 82.5332666,79.5209841 C82.6343172,79.4112308 82.6763382,79.2732839 82.6743372,79.1353371 L82.6743372,79.0870053 L85.2226113,63.3087036 L85.2246123,63.1345079 C85.2226113,62.9804505 85.1605803,62.8243792 85.0355178,62.7136189 C84.9274637,62.6119209 84.7943972,62.5726513 84.6603302,62.5726513 L84.5522761,62.5827205 L84.3861931,62.598831 L69.3696848,66.8298728 L69.0965483,66.8751838 C68.9874937,66.8983427 68.8864432,66.9547298 68.8104052,67.043338 C68.5912956,67.2839898 68.6113057,67.6505056 68.8524262,67.8639708 L69.0275138,68.0280973 L72.3931966,71.0860873 C70.2201101,72.5007978 68.3261631,73.1512626 66.8814407,73.4331978 C55.2676338,75.6624996 49.5337669,68.0069522 49.3156578,67.7068926 L49.2346173,67.5951254 C46.5372686,64.0296522 45.6258129,60.9998557 45.6258129,55.5856931 C45.6258129,48.7346679 47.6308154,43.6467446 51.5857929,40.4679253 C56.6083042,36.4342382 63.5347674,36.4110792 65.4907454,36.8601617 L65.827914,36.9356801 C70.9134567,38.0936282 77.87994,39.6795136 87.4767384,59.0796757 C92.4602301,69.1518105 98.7043522,75.7360041 106.56028,79.2098485 C107.55978,79.7233733 112.330165,82 118.52026,82 C121.109555,82 123.944972,81.6012631 126.853427,80.5137988 C131.407704,78.8030563 142,72.9589425 142,55.632011 C142,44.0495091 137.127564,37.7472507 133.038519,34.4969406"/>
  </g>
</svg>
