<svg xmlns="http://www.w3.org/2000/svg" viewBox="0 0 180 110">
  <g id="icon/partnerships-for-the-goals" fill="none" fill-rule="evenodd">
    <rect id="icon/base" width="180" height="110" fill-rule="nonzero"/>
    <path id="icon" fill="#FFF" d="M105.29284,52.6099677 C109.581493,48.6431194 112.272196,42.9832017 112.272196,36.7035265 C112.272196,35.7653799 112.204903,34.839248 112.090405,33.9301368 C120.803301,34.8602737 127.615932,42.2322839 127.615932,51.1652019 C127.615932,56.2394037 125.403308,60.7969741 121.90208,63.9708533 C118.624826,57.8493715 112.495166,53.4720214 105.29284,52.6099677 M120.073125,74.1553009 C120.073125,83.7099789 112.272196,91.4864835 102.683491,91.4864835 C99.5629182,91.4864835 96.6432193,90.6524641 94.1091978,89.2127044 C97.8082866,85.3209478 100.088203,80.0695294 100.088203,74.2984759 C100.088203,72.8777395 99.9445782,71.4890422 99.6824381,70.1453999 C102.809037,71.877517 106.401663,72.8677272 110.227302,72.8677272 C113.629098,72.8677272 116.852116,72.0847703 119.720592,70.6900656 C119.951597,71.8114362 120.073125,72.9688508 120.073125,74.1553009 M60.9258704,74.2984759 C60.9258704,73.0659695 61.058447,71.8655023 61.306526,70.7060852 C64.171989,72.0907776 67.3819504,72.8677272 70.7726981,72.8677272 C74.5852806,72.8677272 78.1658539,71.8845255 81.2854221,70.1614195 C81.042365,71.4560018 80.9097884,72.7896318 80.9097884,74.1553009 C80.9097884,80.0164646 83.2600104,85.3409723 87.0645579,89.2507509 C84.4903617,90.7535877 81.5053788,91.6306597 78.3165092,91.6306597 C68.7257953,91.6306597 60.9258704,83.8541551 60.9258704,74.2984759 M53.3830637,51.1652019 C53.3830637,42.2322839 60.1936858,34.8612749 68.907586,33.9301368 C68.7920836,34.839248 68.7257953,35.7653799 68.7257953,36.7035265 C68.7257953,43.0482812 71.4727429,48.7652687 75.8387323,52.7381244 C68.6163192,53.5571254 62.4565278,57.9084437 59.1451252,64.0159083 C55.6187877,60.8420291 53.3830637,56.2624319 53.3830637,51.1652019 M90.4984934,19.3703415 C97.6234829,19.3703415 103.753143,23.6655913 106.43782,29.7930804 C99.3640533,31.0366003 93.4593715,35.6912894 90.4984934,41.9899878 C87.5406285,35.6902881 81.6329336,31.0355991 74.559167,29.7930804 C77.2448481,23.6655913 83.3745084,19.3703415 90.4984934,19.3703415 M94.6395044,58.8015352 C97.0479798,57.5419958 99.7788574,56.8191122 102.683491,56.8191122 C109.520227,56.8191122 115.42993,60.7829569 118.272293,66.5169652 C115.860804,67.7755034 113.126913,68.4983869 110.227302,68.4983869 C103.388557,68.4983869 97.4778494,64.5345422 94.6395044,58.8015352 M86.3022423,58.9176772 C83.4407967,64.5886083 77.5642372,68.4983869 70.7726981,68.4983869 C67.8931739,68.4983869 65.1793705,67.7835132 62.7849563,66.5439982 C65.6453975,60.8720659 71.5249701,56.9632885 78.3165092,56.9632885 C81.1970377,56.9632885 83.907828,57.677161 86.3022423,58.9176772 M73.337855,34.038269 C81.7112743,35.2797864 88.1623326,42.4755813 88.1623326,51.1652019 C88.1623326,52.0713094 88.070935,52.9583936 87.9343409,53.828457 C79.5599172,52.5859384 73.1098634,45.392146 73.1098634,36.7035265 C73.1098634,35.7954166 73.2012609,34.9083324 73.337855,34.038269 M90.5788429,86.570475 C87.3236849,83.4186228 85.2938564,79.020247 85.2938564,74.1553009 C85.2938564,69.3614418 87.2573966,65.0191345 90.418144,61.8782957 C93.6722976,65.0291467 95.7041349,69.4285238 95.7041349,74.2984759 C95.7041349,79.0883302 93.741599,83.4306374 90.5788429,86.570475 M107.887124,36.7035265 C107.887124,45.392146 101.438074,52.5859384 93.062646,53.828457 C92.9270562,52.9583936 92.8376674,52.0713094 92.8376674,51.1652019 C92.8376674,42.4755813 99.2877213,35.2807876 107.660136,34.0392702 C107.795726,34.9083324 107.887124,35.7954166 107.887124,36.7035265 M132,51.1652019 C132,39.4608967 122.660378,29.8992101 111.026779,29.477695 C108.033761,21.0523974 99.9626569,15 90.4984934,15 C81.0353344,15 72.96423,21.0523974 69.9692034,29.477695 C58.3356043,29.9002114 49,39.4618979 49,51.1652019 C49,58.1086884 52.2923196,64.2982534 57.4015416,68.2741128 C56.8471303,70.1894538 56.5418023,72.2079208 56.5418023,74.2984759 C56.5418023,86.2620981 66.309285,96 78.3165092,96 C82.8723242,96 87.1037283,94.5942819 90.6039521,92.1993548 C94.0629969,94.5071754 98.218069,95.8548226 102.683491,95.8548226 C114.687702,95.8548226 124.455185,86.1189231 124.455185,74.1553009 C124.455185,72.1067972 124.164922,70.1263767 123.631603,68.2490822 C128.718728,64.2712204 132,58.0946713 132,51.1652019"/>
  </g>
</svg>
