<svg xmlns="http://www.w3.org/2000/svg" viewBox="0 0 180 110">
  <g id="icon/climate-action" fill="none" fill-rule="evenodd">
    <rect id="icon/base" width="180" height="110" fill-rule="nonzero"/>
    <path id="icon" fill="#FFF" d="M115.670237,60.9017631 C114.982037,60.7131253 112.100387,56.7125997 114.378739,54.0786946 C114.757298,53.6472359 113.613628,52.3729275 113.926265,52.3478427 C115.172815,52.251517 115.836044,53.0271394 116.162665,54.1479287 C116.187636,54.6405944 116.206613,55.138277 116.206613,55.6409766 C116.206613,57.4440728 116.019831,59.2030197 115.670237,60.9017631 M108.642408,73.9147594 C108.385706,73.8415118 108.122013,73.7582302 107.836345,73.6147451 C106.435973,72.8993263 106.603778,74.0431937 105.915578,73.7913422 C105.222384,73.5334703 106.691676,71.927039 104.62308,73.2856324 C102.563475,74.6392088 103.119828,73.0759234 102.220873,70.7831717 C101.312929,68.4874098 103.254671,65.8675522 104.875787,65.2745473 C107.104196,64.4638062 108.489585,64.2992498 109.534371,64.0403746 C112.615788,63.2657557 113.26803,61.4285441 113.82738,62.5473267 C113.933256,62.7570357 114.035138,62.9557074 114.12803,63.1433418 C114.306822,63.4764681 114.513582,64.1537579 114.524569,64.8220173 C113.215091,68.2676669 111.196438,71.3611257 108.642408,73.9147594 M90.5474448,81.4161212 C88.0403596,81.4161212 85.622171,81.0498829 83.3358291,80.3786134 C83.0062123,80.1097042 82.8194294,79.659181 83.0251902,79.1193559 C83.819267,77.0393234 86.1825195,76.2255722 88.0493491,76.0459649 C92.2095125,75.6385876 97.6781547,78.7581346 98.5471444,78.2544316 C99.4201294,77.751732 101.179084,75.4549668 103.759085,75.5512925 C105.521037,75.6185198 105.508052,75.9155239 106.098365,76.1402838 C101.784381,79.4464618 96.3966446,81.4161212 90.5474448,81.4161212 M87.0585011,64.6173252 C86.7049122,65.1972861 85.7410328,69.5329447 85.0927864,69.0282383 C84.4425424,68.5225285 85.355481,64.0002389 85.5432627,63.6570787 C86.5560852,61.7897654 88.7485363,61.8820775 87.0585011,64.6173252 M97.5363196,59.5000239 C97.0299083,59.9535573 95.7334156,59.7879975 95.0841704,59.2782742 C94.4399194,58.7745712 95.4936943,57.9387453 95.8792461,57.9076401 C96.7422428,57.8293755 98.0387355,59.0414736 97.5363196,59.5000239 M108.860154,59.5441732 C108.583476,59.4408237 108.339759,59.1779349 108.130003,58.5447943 C107.921246,57.9126571 108.450631,57.5504324 108.968029,57.8052941 C109.494417,58.0742033 110.177623,58.8628697 110.177623,59.2852979 C110.177623,59.7067227 109.142826,59.6565531 108.860154,59.5441732 M109.950886,60.3368532 C110.813883,60.2666157 112.109377,61.466673 111.601967,61.9282336 C111.097553,62.3857805 109.804057,62.218214 109.155811,61.7084906 C108.510561,61.2037842 109.563337,60.3689617 109.950886,60.3368532 M82.4278847,70.6146017 C81.9294641,72.5852645 81.3471411,73.2956663 80.8507183,73.9167662 C80.3552943,74.5448899 78.5184298,75.3466004 77.352785,75.2613121 C76.1861413,75.1730135 76.0233306,72.0434326 76.0233306,70.4359979 C76.0233306,69.8801185 75.240241,71.5276889 74.831716,68.1793683 C74.5710191,66.0351187 73.2006123,68.4031249 73.1047238,66.9732906 C73.0068376,65.5464666 72.322633,65.8304267 71.6024703,64.9384108 C70.8873018,64.0484017 69.9943399,65.025706 68.9935035,65.4772325 C67.9986601,65.920732 68.408184,66.1545224 66.9928295,65.7070094 C66.9558724,65.6949687 66.9378933,65.6859382 66.902934,65.6728941 C65.6044436,62.5894692 64.8872774,59.1990062 64.8872774,55.6409766 C64.8872774,54.7710354 64.9342228,53.9151417 65.0141299,53.0682785 C65.063073,52.9819867 65.113015,52.8997085 65.1729453,52.8294711 C66.5293683,51.2170194 66.4994031,50.8387405 66.4994031,50.8387405 L68.0006578,50.3159731 C68.0006578,50.3159731 70.3978708,50.6872282 72.2037712,51.3705385 C73.6910421,51.9314349 76.033319,53.1977161 77.395735,52.6408333 C78.38059,52.2324526 79.1506947,51.6916241 79.0578027,50.8678389 C78.9469316,49.8343447 78.1368734,49.5895169 77.1560137,50.2858713 C76.7944341,50.5417363 76.0233306,48.7276028 75.4190332,48.819915 C74.8147357,48.9102203 76.1671634,50.9511205 75.6537603,51.0384156 C75.1393583,51.1267141 74.106559,48.9102203 73.9297646,48.5510058 C73.7569655,48.1948015 72.9578945,47.3057958 72.2417271,47.9840891 C70.7284864,49.4279708 68.2713431,49.3406756 67.7779167,49.7119308 C66.2756633,50.8407473 65.8791243,49.3406756 65.9120859,48.4255817 C65.9730151,48.2168761 66.0349431,48.0061637 66.1008665,47.7994649 C66.5912963,47.2566296 68.3512502,47.0770223 68.9565465,47.4813895 C69.6197754,47.9268957 70.0962215,47.3670027 70.3559195,47.0960868 C70.6186141,46.833198 70.5257221,46.4047494 70.3609137,46.0485451 C70.19211,45.6913374 70.6925282,45.4284486 71.0351299,45.3361365 C71.3817269,45.2448278 72.5243985,44.4411104 72.9808678,44.1722013 C73.4413324,43.9063023 75.8135745,43.6163219 76.8773377,44.15113 C77.9391033,44.6889483 78.9149688,44.2494625 79.4373614,43.6313727 C80.0925997,42.8507334 80.9276289,42.2537149 81.298198,42.0731043 C81.669766,41.8995174 80.3822629,40.6914329 79.3244927,42.0078838 C78.2627271,43.3173109 77.7233541,43.4387214 77.2249336,43.4387214 C76.7265131,43.4387214 73.7639574,42.6952076 73.3993812,41.7560323 C73.0378016,40.816857 74.3253047,40.1124755 75.4190332,39.5806775 C76.5117627,39.0569067 79.5032848,39.0639304 80.2683953,38.8903435 C81.8225884,38.5481867 83.8102775,37.7625305 84.8101151,38.4478475 C85.807955,39.1201204 80.6299749,40.3051269 82.3319961,41.2292513 C82.9372924,41.5623776 85.6741106,39.645898 86.613019,39.1562425 C88.8194538,38.0123752 84.4725076,37.636103 85.0368515,35.3112428 C85.6741106,32.6853648 79.7060491,33.7018013 76.7305084,33.9245544 C80.7208692,31.3568732 85.4593603,29.8618185 90.5474448,29.8618185 C102.651373,29.8618185 112.790585,38.2863013 115.494441,49.612595 C115.512421,50.1734913 115.425522,50.5768551 115.369587,50.8056286 C115.137856,51.7347699 113.382896,52.5334703 112.36508,51.0384156 C112.105382,50.66114 111.00566,49.6176119 111.042617,51.402647 C111.077576,53.1886856 112.770608,53.3723064 111.130515,54.4439295 C109.491421,55.516556 109.191769,55.2576807 108.43365,55.5275933 C107.678528,55.7965025 106.944382,57.6367242 107.125172,58.6210521 C107.308958,59.6043767 109.647239,62.2914616 107.911258,62.180085 C107.505729,62.1499833 104.439294,60.0468728 103.932883,58.6942998 C103.399503,57.2704859 102.816181,55.8767739 102.402662,54.8021406 C101.98315,53.7325242 100.902406,53.4596015 99.9854722,54.0887286 C99.0735324,54.7168522 100.240176,55.3429691 99.583939,56.6865115 C98.9296996,58.0260404 98.4602454,59.2230876 97.496366,58.1163457 C94.9922773,55.2335993 91.3535077,56.6554064 90.7821719,53.4475608 C90.4745296,51.7086817 88.9832634,51.8752449 87.7377114,50.8899135 C86.4841688,49.9106025 85.7879782,49.3778011 85.5762244,50.0871996 C85.3914392,50.7103063 89.4976653,53.9813656 89.7903251,54.8191982 C90.2258188,56.0634048 88.5607546,57.1611162 87.3411725,57.4561135 C86.1275834,57.7491041 85.591207,56.7697931 84.395597,55.5185628 C83.2019847,54.2703426 82.6775943,53.3763199 82.5956896,54.3586411 C82.4748301,55.7764346 83.7303704,57.8584739 84.9479548,58.6371064 C85.9857483,59.2973386 87.1493954,59.5963496 86.8127868,60.6689761 C86.4751793,61.7436093 86.8077926,61.1345501 85.6441454,62.2914616 C84.4785006,63.45339 84.2567584,63.826652 84.3416597,65.4310765 C84.4255622,67.0405179 84.0090464,67.13283 83.7583379,68.4703521 C83.509627,69.8088776 82.9312994,68.6509628 82.4278847,70.6146017 M68.6439099,42.2085623 C68.7028414,42.1383248 68.7557799,42.0811314 68.7777543,42.0530365 C69.2412155,41.5232453 70.1621448,41.4088585 70.8004028,41.3095227 C71.4386607,41.1991495 72.2906702,41.5232453 72.3935506,41.9486836 C72.502424,42.3721152 70.7924121,43.1517512 70.4797755,43.442735 C69.5938056,44.2625066 68.2064186,45.9321516 67.3953615,46.1127622 C67.1296704,46.1719623 66.9119235,46.1318267 66.7321326,46.0425247 C67.2665113,44.706006 67.9037704,43.4216637 68.6439099,42.2085623 M69.9593806,39.5806775 C70.2919939,39.091022 71.3947118,37.6932964 71.5285562,37.5166993 C71.8122264,37.1504611 72.3755715,37.0752067 72.7711116,37.0049692 C73.1606587,36.9287114 73.6830514,37.1504611 73.7449794,37.4454585 C73.8129004,37.7414592 73.5941548,38.88633 73.4013789,39.0839983 C72.862006,39.645898 71.4546422,40.4405848 70.6805421,40.3161642 C70.0812389,40.2248555 69.8465118,39.758278 69.9593806,39.5806775 M151.524553,54.8111711 C147.144645,48.6393043 127.332678,24 90.5044948,24 C53.6703182,24 33.8643447,48.6393043 29.4784438,54.8111711 C29.2916609,55.0750633 29.1308479,55.3028334 29,55.4964881 C29.1308479,55.6971666 29.2916609,55.9229299 29.4784438,56.1908357 C33.8643447,62.3586889 53.6703182,87 90.5044948,87 C127.332678,87 147.144645,62.3586889 151.524553,56.1908357 C151.71633,55.9229299 151.874146,55.6971666 152,55.4964881 C151.874146,55.3028334 151.71633,55.0750633 151.524553,54.8111711"/>
  </g>
</svg>
