<svg xmlns="http://www.w3.org/2000/svg" viewBox="0 0 180 110">
  <g id="icon/sustainable-cities" fill="none" fill-rule="evenodd">
    <rect id="icon/base" width="180" height="110" fill-rule="nonzero"/>
    <path id="icon" fill="#FFF" d="M34.7390594,73.7396016 C34.400078,73.7396016 34.1240932,73.4640646 34.1240932,73.126855 C34.1240932,72.9995311 34.1630911,72.8811596 34.2290874,72.7846719 L34.4160772,72.557876 L46.5674105,56.6950998 L46.684404,56.563797 L46.7593999,56.4772565 C46.8693939,56.3857424 47.0083863,56.3210857 47.1623778,56.3210857 C47.3423679,56.3210857 47.5023592,56.397679 47.615353,56.5200294 L47.7363463,56.6523269 L60.1916629,72.6842053 L60.2256611,72.7210099 C60.3246556,72.8284395 60.3876522,72.9696895 60.3876522,73.126855 C60.3876522,73.4640646 60.1126673,73.7396016 59.7736859,73.7396016 L34.9970453,73.7396016 L34.7390594,73.7396016 Z M59.69859,76 C60.0365714,76 60.3115564,76.2725529 60.3115564,76.6107572 L60.3115564,96.1380764 C60.3115564,96.4762807 60.0365714,96.750823 59.69859,96.750823 L51.4100448,96.750823 L51.4100448,84.4660493 C51.4100448,84.1258556 51.1360598,83.8542974 50.7960784,83.8542974 L43.3024896,83.8542974 C42.9615083,83.8542974 42.6875233,84.1258556 42.6875233,84.4660493 L42.6875233,96.750823 L34.6139663,96.750823 C34.273985,96.750823 34,96.4762807 34,96.1380764 L34,76.6107572 C34,76.2725529 34.273985,76 34.6139663,76 L59.69859,76 Z M144.145157,78.8812022 C144.145157,79.2064751 143.874172,79.4700756 143.53719,79.4700756 L136.121597,79.4700756 C135.784615,79.4700756 135.51263,79.2064751 135.51263,78.8812022 L135.51263,74.394027 C135.51263,74.0707434 135.784615,73.807143 136.121597,73.807143 L143.53719,73.807143 C143.874172,73.807143 144.145157,74.0707434 144.145157,74.394027 L144.145157,78.8812022 Z M144.145157,87.1682022 C144.145157,87.4954646 143.874172,87.759065 143.53719,87.759065 L136.121597,87.759065 C135.784615,87.759065 135.51263,87.4954646 135.51263,87.1682022 L135.51263,82.6850058 C135.51263,82.3577434 135.784615,82.0961324 136.121597,82.0961324 L143.53719,82.0961324 C143.874172,82.0961324 144.145157,82.3577434 144.145157,82.6850058 L144.145157,87.1682022 Z M132.808779,78.8812022 C132.808779,79.2064751 132.538793,79.4700756 132.202812,79.4700756 L124.785219,79.4700756 C124.448237,79.4700756 124.175252,79.2064751 124.175252,78.8812022 L124.175252,74.394027 C124.175252,74.0707434 124.448237,73.807143 124.785219,73.807143 L132.202812,73.807143 C132.538793,73.807143 132.808779,74.0707434 132.808779,74.394027 L132.808779,78.8812022 Z M132.808779,87.1682022 C132.808779,87.4954646 132.538793,87.759065 132.202812,87.759065 L124.785219,87.759065 C124.448237,87.759065 124.175252,87.4954646 124.175252,87.1682022 L124.175252,82.6850058 C124.175252,82.3577434 124.448237,82.0961324 124.785219,82.0961324 L132.202812,82.0961324 C132.538793,82.0961324 132.808779,82.3577434 132.808779,82.6850058 L132.808779,87.1682022 Z M146.393033,70.8876442 L121.565396,70.8876442 C121.230414,70.8876442 120.959429,71.1472657 120.959429,71.4745281 L120.959429,96.4131161 C120.959429,96.7363996 121.230414,97 121.565396,97 L146.393033,97 C146.730015,97 147,96.7363996 147,96.4131161 L147,71.4745281 C147,71.1472657 146.730015,70.8876442 146.393033,70.8876442 Z M85.1366943,30.7228998 C85.1366943,30.8959809 84.9927022,31.0382256 84.8157119,31.0382256 L79.254017,31.0382256 C79.0760268,31.0382256 78.9360345,30.8959809 78.9360345,30.7228998 L78.9360345,24.5546503 C78.9360345,24.3775904 79.0760268,24.2363404 79.254017,24.2363404 L84.8157119,24.2363404 C84.9927022,24.2363404 85.1366943,24.3775904 85.1366943,24.5546503 L85.1366943,30.7228998 Z M85.1366943,44.8837127 C85.1366943,45.0587831 84.9927022,45.2020226 84.8157119,45.2020226 L79.254017,45.2020226 C79.0760268,45.2020226 78.9360345,45.0587831 78.9360345,44.8837127 L78.9360345,38.7144684 C78.9360345,38.539398 79.0760268,38.4021268 79.254017,38.4021268 L84.8157119,38.4021268 C84.9927022,38.4021268 85.1366943,38.539398 85.1366943,38.7144684 L85.1366943,44.8837127 Z M85.1366943,59.0485044 C85.1366943,59.2225801 84.9927022,59.3658196 84.8157119,59.3658196 L79.254017,59.3658196 C79.0760268,59.3658196 78.9360345,59.2225801 78.9360345,59.0485044 L78.9360345,52.8792601 C78.9360345,52.7051844 79.0760268,52.5619449 79.254017,52.5619449 L84.8157119,52.5619449 C84.9927022,52.5619449 85.1366943,52.7051844 85.1366943,52.8792601 L85.1366943,59.0485044 Z M85.1366943,73.2083225 C85.1366943,73.3873718 84.9927022,73.5256377 84.8157119,73.5256377 L79.254017,73.5256377 C79.0760268,73.5256377 78.9360345,73.3873718 78.9360345,73.2083225 L78.9360345,67.0440518 C78.9360345,66.8650025 79.0760268,66.7257419 79.254017,66.7257419 L84.8157119,66.7257419 C84.9927022,66.7257419 85.1366943,66.8650025 85.1366943,67.0440518 L85.1366943,73.2083225 Z M85.1366943,87.3731142 C85.1366943,87.5481846 84.9927022,87.6914241 84.8157119,87.6914241 L79.254017,87.6914241 C79.0760268,87.6914241 78.9360345,87.5481846 78.9360345,87.3731142 L78.9360345,81.2058594 C78.9360345,81.0307889 79.0760268,80.8915283 79.254017,80.8915283 L84.8157119,80.8915283 C84.9927022,80.8915283 85.1366943,81.0307889 85.1366943,81.2058594 L85.1366943,87.3731142 Z M74.2272928,30.7228998 C74.2272928,30.8959809 74.0833007,31.0382256 73.9083103,31.0382256 L68.3446156,31.0382256 C68.1686253,31.0382256 68.0256331,30.8959809 68.0256331,30.7228998 L68.0256331,24.5546503 C68.0256331,24.3775904 68.1686253,24.2363404 68.3446156,24.2363404 L73.9083103,24.2363404 C74.0833007,24.2363404 74.2272928,24.3775904 74.2272928,24.5546503 L74.2272928,30.7228998 Z M74.2272928,44.8837127 C74.2272928,45.0587831 74.0833007,45.2020226 73.9083103,45.2020226 L68.3446156,45.2020226 C68.1686253,45.2020226 68.0256331,45.0587831 68.0256331,44.8837127 L68.0256331,38.7144684 C68.0256331,38.539398 68.1686253,38.4021268 68.3446156,38.4021268 L73.9083103,38.4021268 C74.0833007,38.4021268 74.2272928,38.539398 74.2272928,38.7144684 L74.2272928,44.8837127 Z M74.2272928,59.0485044 C74.2272928,59.2225801 74.0833007,59.3658196 73.9083103,59.3658196 L68.3446156,59.3658196 C68.1686253,59.3658196 68.0256331,59.2225801 68.0256331,59.0485044 L68.0256331,52.8792601 C68.0256331,52.7051844 68.1686253,52.5619449 68.3446156,52.5619449 L73.9083103,52.5619449 C74.0833007,52.5619449 74.2272928,52.7051844 74.2272928,52.8792601 L74.2272928,59.0485044 Z M74.2272928,73.2083225 C74.2272928,73.3873718 74.0833007,73.5256377 73.9083103,73.5256377 L68.3446156,73.5256377 C68.1686253,73.5256377 68.0256331,73.3873718 68.0256331,73.2083225 L68.0256331,67.0440518 C68.0256331,66.8650025 68.1686253,66.7257419 68.3446156,66.7257419 L73.9083103,66.7257419 C74.0833007,66.7257419 74.2272928,66.8650025 74.2272928,67.0440518 L74.2272928,73.2083225 Z M74.2272928,87.3731142 C74.2272928,87.5481846 74.0833007,87.6914241 73.9083103,87.6914241 L68.3446156,87.6914241 C68.1686253,87.6914241 68.0256331,87.5481846 68.0256331,87.3731142 L68.0256331,81.2058594 C68.0256331,81.0307889 68.1686253,80.8915283 68.3446156,80.8915283 L73.9083103,80.8915283 C74.0833007,80.8915283 74.2272928,81.0307889 74.2272928,81.2058594 L74.2272928,87.3731142 Z M88.6794999,13 C89.005482,13 89.278467,13.2626057 89.278467,13.5918575 L89.278467,96.1922886 C89.278467,96.5185562 89.005482,96.7831514 88.6794999,96.7831514 L64.3838329,96.7831514 C64.0588508,96.7831514 63.7888656,96.5185562 63.7888656,96.1922886 L63.7888656,13.5918575 C63.7888656,13.2626057 64.0588508,13 64.3838329,13 L88.6794999,13 Z M146.973101,68.3783672 C146.973101,68.654899 146.750114,68.8767212 146.474129,68.8767212 L121.4845,68.8767212 C121.209515,68.8767212 120.985527,68.654899 120.985527,68.3783672 L120.985527,63.4067641 C120.985527,63.1342112 121.209515,62.9103995 121.4845,62.9103995 L146.474129,62.9103995 C146.750114,62.9103995 146.973101,63.1342112 146.973101,63.4067641 L146.973101,68.3783672 Z M115.264841,53.835483 C115.264841,54.1627454 114.995856,54.4263458 114.670874,54.4263458 L107.431271,54.4263458 C107.100289,54.4263458 106.833304,54.1627454 106.833304,53.835483 L106.833304,49.326424 C106.833304,48.9971722 107.100289,48.7335717 107.431271,48.7335717 L114.670874,48.7335717 C114.995856,48.7335717 115.264841,48.9971722 115.264841,49.326424 L115.264841,53.835483 Z M115.264841,62.1692348 C115.264841,62.4945077 114.995856,62.7581081 114.670874,62.7581081 L107.431271,62.7581081 C107.100289,62.7581081 106.833304,62.4945077 106.833304,62.1692348 L106.833304,57.6601757 C106.833304,57.3329133 107.100289,57.0693129 107.431271,57.0693129 L114.670874,57.0693129 C114.995856,57.0693129 115.264841,57.3329133 115.264841,57.6601757 L115.264841,62.1692348 Z M115.264841,70.5019918 C115.264841,70.8252753 114.995856,71.0908652 114.670874,71.0908652 L107.431271,71.0908652 C107.100289,71.0908652 106.833304,70.8252753 106.833304,70.5019918 L106.833304,65.9909433 C106.833304,65.6636809 107.100289,65.4000805 107.431271,65.4000805 L114.670874,65.4000805 C114.995856,65.4000805 115.264841,65.6636809 115.264841,65.9909433 L115.264841,70.5019918 Z M115.264841,78.8327594 C115.264841,79.1610165 114.995856,79.4246169 114.670874,79.4246169 L107.431271,79.4246169 C107.100289,79.4246169 106.833304,79.1610165 106.833304,78.8327594 L106.833304,74.3237004 C106.833304,73.9944485 107.100289,73.7328376 107.431271,73.7328376 L114.670874,73.7328376 C114.995856,73.7328376 115.264841,73.9944485 115.264841,74.3237004 L115.264841,78.8327594 Z M115.264841,87.1645217 C115.264841,87.4917841 114.995856,87.7553845 114.670874,87.7553845 L107.431271,87.7553845 C107.100289,87.7553845 106.833304,87.4917841 106.833304,87.1645217 L106.833304,82.6554627 C106.833304,82.3301897 107.100289,82.0665893 107.431271,82.0665893 L114.670874,82.0665893 C114.995856,82.0665893 115.264841,82.3301897 115.264841,82.6554627 L115.264841,87.1645217 Z M104.215447,52.2439334 L104.215447,52.460782 L104.215447,62.1771925 C104.215447,62.5044549 103.947462,62.7670606 103.62148,62.7670606 L96.3818773,62.7670606 C96.0508954,62.7670606 95.78491,62.5044549 95.78491,62.1771925 L95.78491,60.977562 L95.78491,60.9268313 C95.7869099,60.8492433 95.8019091,60.7746394 95.8289076,60.7060038 C95.840907,60.6821306 95.8439068,60.6721834 95.8659056,60.6373683 C95.8799048,60.6105109 95.9009037,60.5836535 95.9179027,60.5597802 C95.9369017,60.5309334 95.9639002,60.4951235 95.9868989,60.4622978 C96.9118482,59.1442958 101.088619,54.026469 102.842523,51.8868295 L103.018513,51.6759491 C103.146506,51.5227625 103.337496,51.4242853 103.552484,51.4242853 C103.885466,51.4242853 104.151451,51.6650072 104.215447,51.9773488 L104.215447,52.2439334 Z M104.195449,70.5019918 C104.195449,70.8252753 103.930463,71.0908652 103.601481,71.0908652 L96.3598785,71.0908652 C96.0308965,71.0908652 95.7659111,70.8252753 95.7659111,70.5019918 L95.7659111,65.9909433 C95.7659111,65.6636809 96.0308965,65.4000805 96.3598785,65.4000805 L103.601481,65.4000805 C103.930463,65.4000805 104.195449,65.6636809 104.195449,65.9909433 L104.195449,70.5019918 Z M104.195449,78.8327594 C104.195449,79.1610165 103.930463,79.4246169 103.601481,79.4246169 L96.3598785,79.4246169 C96.0308965,79.4246169 95.7659111,79.1610165 95.7659111,78.8327594 L95.7659111,74.3237004 C95.7659111,73.9944485 96.0308965,73.7328376 96.3598785,73.7328376 L103.601481,73.7328376 C103.930463,73.7328376 104.195449,73.9944485 104.195449,74.3237004 L104.195449,78.8327594 Z M104.195449,87.1645217 C104.195449,87.4917841 103.930463,87.7553845 103.601481,87.7553845 L96.3598785,87.7553845 C96.0308965,87.7553845 95.7659111,87.4917841 95.7659111,87.1645217 L95.7659111,82.6554627 C95.7659111,82.3301897 96.0308965,82.0665893 96.3598785,82.0665893 L103.601481,82.0665893 C103.930463,82.0665893 104.195449,82.3301897 104.195449,82.6554627 L104.195449,87.1645217 Z M107.973241,44.9615991 L108.144232,44.7487294 C109.779142,42.6637994 112.531991,39.2917036 113.873918,37.6534022 L114.049908,37.4445113 C114.176901,37.2923194 114.36889,37.1938422 114.583879,37.1938422 C114.91586,37.1938422 115.181846,37.4325747 115.245842,37.745911 L115.245842,38.0134903 L115.245842,38.2303389 L115.245842,45.3694337 C115.245842,45.7374796 114.952858,46.032911 114.586878,46.0488265 C114.576879,46.0488265 114.56688,46.0557895 114.55688,46.0557895 C114.546881,46.0557895 114.536881,46.0488265 114.526882,46.0488265 L108.855193,46.0488265 L108.559209,46.0488265 C108.54821,46.0488265 108.53921,46.0557895 108.529211,46.0557895 C108.519211,46.0557895 108.510212,46.0488265 108.498212,46.0488265 C108.133233,46.032911 107.839249,45.7374796 107.839249,45.3694337 C107.839249,45.2172418 107.888246,45.0759918 107.973241,44.9615991 Z M118.02769,28.5974848 C117.946694,28.3318949 117.709707,28.1349407 117.416723,28.1349407 C117.28573,28.1349407 117.171737,28.1836819 117.069742,28.2493333 C117.054743,28.2592805 117.038744,28.268233 117.024745,28.2801696 L116.819756,28.536807 L92.9400661,58.669815 L92.8290722,58.8170334 C92.706079,58.9373943 92.6270833,59.1025176 92.6220836,59.2865405 L92.6220836,59.327324 L92.6220836,96.3169268 C92.6220836,96.6421997 92.8890689,96.9058002 93.2190508,96.9058002 L117.491719,96.9058002 C117.820701,96.9058002 118.084687,96.6421997 118.084687,96.3169268 L118.084687,28.844175 C118.084687,28.755645 118.061688,28.671094 118.02769,28.5974848 Z"/>
  </g>
</svg>
