<svg xmlns="http://www.w3.org/2000/svg" viewBox="0 0 180 110">
  <g id="icon/zero-hunger" fill="none" fill-rule="evenodd">
    <rect id="icon/base" width="180" height="110" fill-rule="nonzero"/>
    <path id="icon" fill="#FFF" d="M75.402,89.962753 C59.628,85.102753 47.732,72.505753 45.057,57.094753 L45,56.595753 C45,55.981753 45.496,55.484753 46.112,55.484753 L133.616,55.484753 C134.231,55.484753 134.726,55.981753 134.726,56.595753 C134.726,56.647753 134.72,56.694753 134.711,56.748753 C134.706,56.776753 134.702,56.807753 134.696,56.839753 C132.15,72.106753 120.571,84.632753 105.115,89.698753 L105.115,92.347753 L105.12,92.358753 C105.12,92.358753 105.115,92.360753 105.115,92.362753 C105.111,92.963753 104.633,93.450753 104.033,93.462753 C104.025,93.462753 104.017,93.466753 104.008,93.466753 C104.001,93.466753 103.992,93.462753 103.985,93.462753 L76.53,93.462753 C76.521,93.462753 76.511,93.466753 76.503,93.466753 C76.495,93.466753 76.489,93.462753 76.482,93.462753 C75.899,93.450753 75.426,92.989753 75.402,92.410753 C75.4,92.393753 75.394,92.375753 75.394,92.355753 C75.394,92.338753 75.4,92.318753 75.402,92.302753 L75.402,89.962753 Z M105.0905,18.138553 C105.8855,17.028553 107.5835,16.670553 108.8935,17.338553 C110.1985,18.011553 110.6225,19.452553 109.8305,20.571553 C109.7295,20.722553 103.0105,30.525553 109.6445,37.777553 C114.3335,42.900553 114.8165,47.884553 113.6465,51.859553 L107.8715,51.859553 C109.0495,49.167553 109.4085,45.182553 105.2795,40.664553 C96.2765,30.823553 104.7295,18.652553 105.0905,18.138553 Z M90.464,51.859253 C91.64,49.170253 91.999,45.183253 87.87,40.665253 C78.859,30.823253 87.319,18.650253 87.682,18.138253 C88.474,17.027253 90.175,16.672253 91.48,17.338253 C92.79,18.013253 93.207,19.453253 92.42,20.566253 C92.313,20.726253 85.6,30.524253 92.235,37.777253 C96.924,42.901253 97.409,47.883253 96.241,51.859253 L90.464,51.859253 Z M70.2712,18.138553 C71.0632,17.026553 72.7632,16.666553 74.0682,17.338553 C75.3772,18.011553 75.7962,19.452553 75.0112,20.567553 C74.9052,20.722553 68.1862,30.525553 74.8222,37.777553 C79.5152,42.902553 79.9982,47.886553 78.8302,51.859553 L73.0552,51.859553 C74.2302,49.169553 74.5882,45.184553 70.4572,40.664553 C61.4512,30.823553 69.9052,18.652553 70.2712,18.138553 Z"/>
  </g>
</svg>
